<?xml version="1.0" encoding="utf-8"?>
<!-- Generator: Adobe Illustrator 26.0.0, SVG Export Plug-In . SVG Version: 6.00 Build 0)  -->
<svg version="1.1" id="portal" xmlns="http://www.w3.org/2000/svg" xmlns:xlink="http://www.w3.org/1999/xlink" x="0px" y="0px"
	 viewBox="0 0 652 652" style="enable-background:new 0 0 652 652;" xml:space="preserve">
<style type="text/css">
	.st0{fill:#A6CA54;}
	.st1{fill:#5CAD4A;}
	.st2{fill:#208D45;}
	.st3{fill:#FEFEFE;}
</style>
<g id="light-green">
	<path id="light-green-2" class="st0" d="M617.9,325.8c-3.9-6.8-20.2-96.2-30.1-66.6c0-2.6,3.8-25.7-5.2-40
		c-21.7-5.6,2.7-23.8-0.7-34.2c0.4-19.8-21.4-38.9-9.1-7.5c-24.9-27.1-1.2-30.8-24.4-56.9c-4.9-6-9.5-12.4-10.8-20.6
		c-0.7,13.8-3.1-7.8-20.7-17.3c-30-22.2-73.2-13-102.2-23.4c0.4-12.2-35.3-17.8-10.8-20.8c-25.8-16.6-63.5-19.2-93.3-12.3
		c-13.4,7-28.7-1.8-41.4,3.3c-10.4,8.2-22.4,12.7-35,16c-4.4,1.1-4.4,1.1-5.7-3.1c-9.4-9.5-27.6,10.7-38.5,14.3
		c-15.3,7.3-23.2,21.6-33.8,33.8c-7.8,8.2-22.1,0.8-28,12.5c-4.5,10-22.4,25.7-27.7,21.1c-7.2,9.6-26.9,24.4-21.6,36.7
		c10.8,2.7-13.5,26.4-17,30.4c-19,30.3-14.7,66.8-18.1,100c-7.5,34.2-16.4,69.5-2.4,103.8c24.5,74.8,38.3,2,23.8,91.4
		c6.5,18.5,22.4,58.1,40.2,59.8c4-6.9,12,14.1,5.8,13c7.8,19.3,35.6,28.7,53.7,38.4c50.2,10.5,99.7,22.1,150.6,31.7
		c2.5-15.1,65.7,1.4,51.9-11.2c-14.5-11.5,52.6,0.7,68.3-5.9c12.7-1.1,19.5-11.7,31.9-10.7c12.3-2,1.8-17.2,13.5-19.5
		c40-5.5,19-23.7,29.4-36.6c24-9.4,14.1-1,10.9-17.7c27.7-9.7,11.3,13.8,46.1-25.6c7.4-9,4.2-30.7,5.1-17.4
		c8.1-7.8,13.3-21.2,2.9-29.2c-12.4-13.4,10.7-18.3,13.8-29.7C597.4,392.3,618.1,360.9,617.9,325.8z"/>
</g>
<g id="green">
	<path id="green-2" class="st1" d="M598.8,344.7c-1.7,5-4.5,9-9.5,11c-1.7,0.7-3.5,1-5.2,1.5c-2.9,0.9-4.6,3.9-3.9,6.8
		c2.3,9,0.9,17.8-1.7,26.4c-2,6.7-4.4,13.3-6.6,19.9c-0.1,0.5-0.2,1.1-0.3,1.6l-0.7,0.8c-1.3,0.3-2.6,0.7-3.9,1.1
		c-1.9,0.7-2.4-0.1-2.3-1.7c0.1-1.1,0.3-2.2,0.7-3.2c1.9-5.4,3.6-10.9,3-16.7c-0.4-3.8-1.2-7.6-1.8-11.3h-0.7
		c-0.6,1.3-1.2,2.7-1.7,4c-3.3,8.5-9,15.5-14.2,22.8c-2.5,3.5-4.9,7-7.3,10.6c-0.3,0.5-0.5,1.1-0.6,1.7l-7.4,7.2
		c-2.4,2.1-5.1,4-7.2,6.4c-4.2,4.8-8.2,9.9-12.2,14.9c-0.3,0.2-0.6,0.3-1,0.4c-4.6,0.3-8.8,2.7-11.4,6.5c-0.3,0.7-0.5,1.4-0.6,2.1
		c-1.2,1.9-2.4,3.8-3.5,5.7c-4.7,8.6-10.9,15.8-19.9,19.8c-3.6,1.6-7.6,2.2-11.4,3.3s-7.5,2-11.2,3.1c-7.1,2.1-14.1,4.5-21.6,4
		c1.9-1.3,3.8-2.6,5.7-4c2.1-1.6,2.6-4.1,1.4-6.8c-1-2.4-3.1-2.1-5.1-2c-1.3,0.1-2.6,0.2-4,0.2c1.1-0.7,2-1.8,3.2-2.2
		c3.1-0.9,6.4-1.4,9.5-2.2c18.4-4.4,34.2-13.3,46.6-27.8c1.2-1.6,2.4-3.3,3.5-5c0.2-0.2,0.4-0.5,0.5-0.8c1.9-8.5,6.2-15.8,10.3-23.3
		c3.2-6,6.4-12.1,9.4-18.3c1.2-2.4,1.4-5.2,2.4-7.7s2.4-4.9,3.4-7.4c3-7.7,5.1-15.8,6.2-24.1c0.8-5.5,1.8-11.1,1.8-16.6
		c-0.1-6.2-0.7-12.4-1.9-18.5c-1.1-6.1-3-12-4.6-18c-0.6-2.4-1.3-4.7-2.1-7.1c-2-6-6.1-11.4-4.9-18.3c0.4-1.9-0.9-3.8-2.8-4.2
		c-2.9,3.3-3.1,6.9-1.6,10.7c1.5,3.8,3.2,7.3,4.3,11.1c1.9,6.7,3.5,13.4,5,20.2c1.6,7.1,1.9,14.4,1,21.6c-0.2,2-0.9,3.5-2.8,3.9
		s-3.4-1.3-4-3.7c-1.3-4.9-2.5-9.9-3.9-14.7c-2.1-6.9-4.5-13.8-6.9-20.7c-1.9-5.6-4.2-11.1-5.8-16.8c-2.1-7.3-3.5-14.9-3.1-22.6
		c0.3-2,0.2-4.1-0.2-6.1c-1.1-3.8-3.4-7.2-6.6-9.6c-2-1.6-3.5-3.6-4.6-5.9c-2.7-5.6-3.6-11.9-7.7-17c-2.3-2.9-0.9-6,2.5-7.6
		c1.4-0.7,2.8-1.6,4-2.6c2-1.6,2.3-7.4,0.7-9.4c-5-6.1-8.7-13.2-11-20.8c-0.8,0-1.5,0-2.3,0c-5.4-0.1-8.7-3.6-11.7-7.3
		c-2.7-3.3-5.2-6.8-8-10.1c-2-2.4-1.8-4.3,1.2-5.1c2.1-0.4,4.2-0.7,6.4-0.6c1.9,0,3.7-0.9,4.7-2.4c-1.7-1.3-3.3-2.5-4.9-3.7
		c-7.9-5.7-15.5-11.7-24.4-15.8c-2.7-1.2-5.2-3.2-8-4.3c-4.1-1.6-8.4-2.7-12.6-4.1c-3.9-1.3-7.8-2.5-11.9-0.9c-0.3,0.1-0.7,0.1-1,0
		c-3.2-3.3-7.6-3-11.6-3.9c-4.8-1-9.6-1.9-12.8-6c-1.1-1.6-2.1-3.3-2.9-5c1.4-2.5,2.8-5,4.1-7.5c1.7-3.1,1.7-5.4-0.5-7.4
		c-3.8-3.4-8.3-5.3-13.6-4.7c-5.8,0.6-8.6,5-6.9,10.6c0.6,1.9,1.1,3.8,1.6,5.7c-2.7,0.9-4.2,0.3-6-1.7c-5.7-6.5-12.4-11.5-21.4-12.2
		c-3.9-0.2-7.9-0.1-11.8,0.4c-2.5,0.2-3.9-1.6-2.8-4.2c0.7-1.6,1.7-3.1,2.5-4.6c1.5-3.1,0.1-5.4-3.4-5.5c-6.7-0.1-13.4-0.4-20,0.1
		c-8.2,0.4-16.2,2.5-23.6,6.1c-4.9,2.5-10.3,4.1-15.4,6.4c-4.3,2.1-7.9,5.4-10.3,9.5l0.3,0.6c2.3-0.8,4.7-1.7,7-2.5
		c5.8-2,11.5-4.2,17.4-5.9s12.1-3.1,18.2-4.3c4.8-0.9,8.3-0.8,10.6,4.2c2.3,4.9,7,6.4,11.5,8.2c0.7,0.3,1.3,0.8,1.8,1.3
		c-0.7,0.2-1.5,0.4-2.3,0.4c-4.9-0.5-9.9-0.6-14.6-1.7c-5.2-1.2-10.3-0.5-15.4-0.6c-1.2,0.1-2.3,0.4-3.4,0.8v1.1c3,0.3,6,1,9,0.8
		c4.5-0.3,9.7,3.8,8.4,8.8c-6.9-7.5-15.7-7.8-24.7-6.1c-5.3,1-9.5,4.6-13.8,7.9c-3.8,2.9-7.9,5.5-11.8,8.3c-2.3-3.4-3.5-3.8-6.1-1.6
		c-4.5,3.7-9.9,6.2-15.6,7.2c-1.4,0.2-2.9,0.4-4.7,0.7l4.5,4.1c-3.8,1.4-7.8,2.3-11.3,4.2c-2.9,1.6-5.1,4.3-7.6,6.5
		c-0.4,0.1-0.7,0.2-1.1,0.4c-7.1,5.2-14.2,10.4-21.3,15.6c-1.9,1.2-3.6,2.6-5.1,4.2c-0.7,0.8-0.5,2.5-0.2,3.7
		c0.1,0.4,1.8,0.5,2.8,0.4c0.9-0.1,1.9-0.3,2.8-0.5c-1.1,1.4-2.3,2.8-3.6,4c-1.6,1.3-2.9,0.8-3.8-1c-0.7-1.5-1.3-3.1-2.1-4.6
		c-2.1-4.3-6-4.9-9.6-1.6c-1.9,1.8-3.9,3.5-5.9,5.1c-5,3.8-10.8,5.2-16.9,5.3c-1.2,0-2.4,0-3.6,0c-2.9-1.3-4.2-3.7-4.5-6.8
		c-0.3-2.8-0.5-5.8-2.8-7.9c3.1-3.9,7.6-5.3,12-6.8c0,1.4-0.1,2.9,0,4.3c0.3,3.6,3.6,5.3,6.5,3.1c1.2-0.9,2.2-2.1,2.6-3.5
		c0.4-2.8,0.5-5.7,0.5-8.6c1.6-4.4,5-7,9-9.1c3.5-1.9,7-3.8,10.5-5.8c0.7-0.5,1.4-1.1,2-1.8c-0.1-0.2-0.2-0.5-0.3-0.7l-8.8,3
		l-52.8,18c-0.5,0.1-0.9,0.2-1.4,0.3c-0.6-0.3-1.1-0.6-1.7-0.9c-5.2-2.7-8.6-1.7-11.5,3.4c-1.5,2.6-2.8,5.3-4.1,8
		c-1.3,4.1-2.6,8.3-3.7,12.5c-0.8,2.8-0.9,5.7-1.9,8.3c-1.2,2.7-2.6,5.2-4.4,7.6c-0.6,0.9-1.5,1.7-3,0.7c-3.3-2.2-6.7-4.2-10-6.3
		c-2-1.3-3.9-2.7-5.8-4.1c2.4-6,4.8-12.1,7.3-18.3c1.1,0.9,2,1.6,2.9,2.3c3.4,2.4,6.5,2,9-1.3c1.1-1.6,2.1-3.4,3-5.1
		c0.6-0.4,1.1-0.9,1.6-1.4c6.4-7.9,12.7-15.7,19-23.6c5.2-6.5,10.5-13,15.8-19.4c0.4-0.5,1.5-0.5,2.2-0.7c1,1.5,2.1,3,3.2,4.4
		c2,2.1,4.3,2,6.3-0.1c1.3-1.5,2.4-3.1,3.5-4.8c5.4,0.7,9.8-1.3,14.1-4.5c3.6-2.8,7.6-5,11.4-7.5c2.3-1.2,4.6-2.6,6.7-4.1
		c4.2-3.3,5.2-7.8,3.9-12.9c5.8-2.8,11.5-5.7,17.4-8.3c2.1-0.9,4.6-1,6.9-1.5c0,2.9,0,5.9-0.2,8.8c-0.4,7,2.5,9.5,9.5,8
		c5.5-1.2,8.4-4.4,8.5-9.4c0.1-4.2-1.9-8.2-5.2-10.8c-1.4-2.8-1.2-3.6,1.4-5.5c1.4-1,3.4-1.6,3.4-3.9l5.4-7.3
		c0.2-0.2,0.5-0.4,0.7-0.7c5-5.9,10.9-9.7,19-8.9c3.9,0.3,7.7-0.6,11-2.7c7.6-4.2,15.7-4.6,24.1-3.4c5.3,0.8,10.8,0.9,16.2,1.2
		c1.2,0,2.4-0.2,3.6-0.4c0.3,2.7,0.1,5.3,0.9,7.4c2.2,5.4,8.5,7.9,15.1,6.7c5.2-1,10,0,13.8,4.1c1.2,1.3,2.4,2.6,3.6,3.8
		c0.7,3.6,4.4,7.5,8.1,8.1c4.9,0.8,9.4-0.6,13.5-3.3c2.5-0.5,5-1.3,7.5-1.3c3.4,0,6.6,1.6,8.7,4.3c2.6,3.1,6.2,5.1,10.1,5.8
		c6.3,1.2,13.1,1.3,18.1,6.3c-1.7,1.3-2.4,3.5-1.7,5.5c0.8,2.6,3,4.5,5.6,4.9c2.6,0.5,5.2-0.9,6.2-3.3c4.1-1.8,7.3,0,10.3,2.7
		c1.7,1.6,3.6,2.9,5.5,4.1c3.7,2.1,6,1.2,7.4-2.8c0.4-1.1,0.5-2.3,1.1-3.1c0.8-1.1,2-1.9,3.3-2.2c1.6-0.2,3.3,0.4,4.9,0.7
		c10,1.8,19.1,6,28,10.8c2.5,1.3,4.7,3,7,4.6c-0.1,0.2-0.2,0.4-0.3,0.6c-2,0-4-0.1-5.9,0c-3.4,0.2-4.9,2.2-4.1,5.2
		c0.5,2.1,2.4,2.4,4,2.9c7.5,2.3,15.2,4.1,22.6,6.9c10.4,3.8,19.4,10,25.9,19.2c1.7,2.4,3.4,4.8,5.2,7.1c1.1,1.4,3,1.9,4.5,1.1
		c1.7-0.6,2.6-2.3,2.3-4c-0.5-3-1.2-5.9-2-8.8c-1-3.6-0.5-5.5,2.2-7.6c1.2,1,2.5,2,3.7,3c2.4,2,5.1,2.9,8.2,1.9
		c1,0.3,1.9,0.7,2.8,1.2c1.2,0.9,2.3,1.8,3.4,2.8c-0.9,1.1-2,2.1-3.1,3c-4.5,2.9-4.9,4.3-2,8.8c6.3,9.8,13.6,19.1,18.2,29.9
		c1.3,2,2.3,4.4,4,5.8c1.3,1,5-1.4,6.3-3.6l3.7-4.7c0.9,1.7,1.7,3.3,2.6,4.8c1.8,2.8,1.7,5.5-0.6,8c-3.2,1.9-5.8,8-5.1,11.9
		c1,4.7,4.3,8.4,8.4,9c1.1,0.2,2.2,0.1,3.3-0.2c2-0.7,3.1,0.2,3.5,2c0.7,2.4,1.1,4.9,1.3,7.5c0,3.6-0.5,7.3-0.8,11.2l-7.3,0.6
		c-0.1,3.1-0.1,6.2,0.1,9.2c0.3,3.1,2.3,4.7,5.4,4.6c2.4-0.1,4.7-0.6,7.3-0.9c0.1,0.5,0.2,1.1,0.3,1.8c-0.5,2-0.8,4-1,6.1
		c-0.2,6.1-0.7,12.3,1.3,18.4c1.4,4.2,3.7,8.1,6.8,11.3c1.6,1.7,2.4,3.9,2.4,6.3c0,5-0.2,10.1,0.1,15.1c0.1,3.7,0.8,7.4,1.8,11
		C602.8,329.3,601.4,337,598.8,344.7z M417,68.9l7.1,2.5c0.7-1.1,1.6-2.2,2.5-3.1c2.6-2.3,5.1-2.3,7.8-0.2c1.6,1.3,3.1,2.8,4.7,4.3
		c1.5,1.7,2.9,3.7,4.7,5c3.7,2.4,7.6,4.6,11.5,6.6c5.1,2.6,10.2,5.1,13.9,9.7c1.8,2.2,3.8,4.2,6,6c3.2,2.6,7.5,2.9,10.3,1
		c-0.5-1.3-1-2.6-1.6-3.9c-1.1-1.8-1.5-4-1-6.1c-1-1.5-2.1-2.9-3.4-4.2c-2.3-2.1-4.9-3.8-7.2-5.9s-2.6-4.4-1.3-7.1
		c0.5-1.2,1.2-2.4,2-3.9c-1.7,0-3.4-0.2-5.1-0.6c-1.4-0.6-2.8-1.4-4.1-2.3c-9.4-3.2-19.1-4-28.9-5c-0.6,0-1.2,0.4-1.5,0.9
		c-1,1.6-2.3,1.9-4,1.7c-1.7-0.2-3.5-0.2-5.2,0c-3.9,0.6-7.8-1.5-9.5-5c-0.5,0.1-1.1,0.2-1.6,0.3c-3,0.9-3.4,1.9-1.9,4.6
		C412.5,66.4,414.6,68.1,417,68.9z M476.7,519c-1.6-1.2-3.9-1.2-5.5,0c-2.5,1.6-5,3-7.7,4.2c-5.6,2.7-11.5,4.9-14.4,11
		c-0.4,2.7-2.3,4.4-4.5,5.4c-2.8,1.1-5.6,2-8.5,2.8c-4.4,3.3-9.3,3.8-14.4,2.5c-4.3-1.1-8.6-2.4-12.8-3.8c-5.4-1.8-7.2-6.3-5-11.4
		c0.5-1.2,1-2.4,1.3-3.6c0.8-2.8-0.5-4.7-3.4-5.5c-1.1-0.3-2.1-0.8-3.1-1.1c-2-0.6-3.9-1.5-5.9-1.5c-2.9,0-4.5,2-5.8,4.6
		c-2.3,4.9-5.1,6.6-9.4,6.2c-0.9-0.1-1.9-0.3-2.8-0.5c-5.1-0.5-10.2-1-15.4-1.5c-7.6-0.7-15.1-1.2-22.7-1.9c-1.7,0-3.5-0.2-5.2-0.6
		c-1.3-0.5-2.4-1.8-3.5-2.8c-2.8,0.8-5.6,1.8-8.4,3c-2.7,1.3-5.2,2.7-8.3,2.3c-1.5,3.8-4.6,5.6-8.2,6.7c-2.7,0.8-5.5,1.4-8.4,1.8
		c-3.6,0.5-6.9,1.9-9.8,4.1c-0.2,2.3-0.6,4.5-1.1,6.8c-0.9,3.2-3.8,5.4-7.2,5.2c-2,0-4-0.2-5.9-0.7c-7.3-1.7-9.8-6.1-8-13.7
		c-2.2-2.5-4.7-2.8-7.9-1.6c-7.7,2.9-14.8,1.5-20.5-4.6c-3.6-3.9-6.6-8.3-10-12.5s-7.5-7.7-13-8.7c-5.2-1-7-4.7-8.2-9.1
		c-4.1,1.6-6.5-0.3-9-3.5c-4.2-5.7-9.5-9.8-17.2-9.5c-2.4,1.1-4.7,2.5-7.1,3.2c-5.5,1.6-9.7-0.2-12.9-5.1c-4.4-6.9-4.2-13.4,0.6-19
		c3-3.5,6.1-4.1,10.2-1.9c2.1,1.1,4.1,2.4,6.2,3.5c-0.2-5.7-3.2-10.3-5.8-15c-3-5.5-7-10.8-7.5-17.2s-4-10.6-7.8-14.8
		c-3-3.3-6.6-6-9.6-9.3c-1.8-2-3.3-4.2-4.4-6.7c-3.8-8.6-6.5-17.5-6.7-27c-0.1-5.2-0.4-10.5,0.3-15.7c0.9-6.3,2.8-12.4,4.3-18.6
		c0.8-3.4,0.9-6.6-1.1-9.9c-12,13.8-15.5,30.7-19.4,47.5c-3.3-6.7-6.6-13.2-9.7-19.9c-2.1-4.6-3.5-9.5-2.5-14.6
		c0.9-4.8,2.1-9.5,3.6-14.2c3.3-10.2,7.2-20.2,9.2-30.9c0.5-2,1.6-3.8,3.1-5.2c4-3.4,7.5-7.4,10.4-11.8c5.2-7.7,10.6-15.3,15.6-23.2
		c0.7-1.6,0.7-3.5,0-5.1c-0.8-1.7-2.6-0.4-4,0c-3.7,1.1-7.4,2.4-11.2,2.9c-3.2,0.4-5.5-3.2-4.4-6.3c0.5-1.4,1.2-2.8,2.1-4
		c3.4-4.9,5.9-10.4,7.3-16.2c1.1-4.6,2.4-9.2,4-13.7c2-5.6,5.4-10,11.5-11.4c4.9-1.1,9.8-1.9,14.7-3c1.4-0.4,2.7-0.8,4-1.4
		c-4.6,0.1-9.2,0-13.8,0.5c-5.5,0.6-10.9,1.8-15.3,5.4s-8.5,7.4-13,10.9c-7.3,5.7-14.8,11.1-22,16.8c-1.2,0.9-2.1,2.3-2.5,3.8
		c-0.5,2.4,0.2,5-0.4,7.3c-1.4,5.2-3.2,10.2-5,15.2c-3.5,9.5-6.8,19-10.8,28.4c-2.9,6.9-4.8,13.9-4,21.4c0.8,7.1,0.8,14.2-0.9,21.1
		c-1.9,7.7-4.1,15.4-6.2,23c-2,7.2-3,14.5-1.9,21.9c1.2,8.2,4.1,15.8,7.6,23.3c1.4,3,2.5,6.1,3.8,9.2l2.3,0.4v-28.1l0.6-0.1
		c0.9,2.6,1.9,5.3,2.8,7.9c3,8.2,5.9,16.4,5.2,25.3c-0.1,1.8-0.6,3.5-0.9,5.3c-0.6,3.5,0.5,6.5,2.6,9.4c1.6,2.2,3.1,4.4,4.4,6.8
		c0.4,1.1,0.7,2.3,0.7,3.5c0.5,0.1,1.1,0.2,1.6,0.4c6.6,3.9,11.2,9.4,12.7,17.1c1.3,6.6,0.1,13-1.7,19.3c-1.5,4.7-0.4,9.9,3,13.6
		c5.1,6.3,9.7,13,11.6,20.9c1.4,5.7,3.5,10.5,8.8,13.4l5.1,2.7c0.4-0.8,0.7-1.6,1-2.4c1.3-4.6-0.4-8.8-2-12.9
		c-1-2.5-1.9-4.9-2.9-7.4l0.6-0.4c21.7,29.9,51.7,48.7,85,63c-1.8,2.8-3.9,3-6.4,2.5c-4-0.8-5.1-0.4-6.4,2.2l2.6,4.7
		c10.3,4.6,20.5,9.3,30.8,13.9c8.3,3.7,16.2,8,23,14.3c0.7,0.5,1.5,0.8,2.2,1.1c2.7-2.7,6.1-3.1,9.8-2.7l4.5,0.5
		c0.4-0.1,0.8-0.1,1.2-0.2c4.9-1,7.8-5.5,3.9-9.9s-4.7-9.4-3-14.9c0.3-1,0-2.9-0.7-3.3c-1.2-0.5-2.5-0.5-3.6,0.2
		c-4.4,3.5-9.2,3.5-14.2,1.9c-3.1-1-6.2-1.8-9.4-2.8c0,0.1,0,0.2,0,0.2c-0.6,8.6-3.7,10.6-11.9,7.6c-6.8-2.5-9.6-6.9-8.3-13.1
		c0.6-2.9,1.8-3.6,4.6-2.5c1.3,0.5,2.5,1.2,3.7,1.5c1.2,0.2,2.4,0.3,3.7,0.2c-0.4-1.4-0.3-3.2-1.2-4.2c-1.5-1.6-3.2-3-5.1-4.1
		c-1.7-1.2-3.5-2.3-5.3-3.4c-1.3-2-3.1-3.9-3.6-6.1c-0.7-2.8,3.8-5.1,6.7-3.3c2.1,1.4,4.1,3,6,4.7c2,0.2,4.1-0.1,5.9,0.6
		c12.1,5,25.6,5.1,37.8,0.5c9.4-3.4,18.5-7.8,27.7-11.8c2.4-1,4.3-0.2,4.5,2.4c0.1,1.7-0.2,3.5-1,5c-2.6,4.7-5.5,9.2-8.2,13.7
		c-1.8,3.1-3.5,6.2-5.3,9.3c0.7,1.4,1.5,2.8,2.2,4.2c0.8-0.2,1.7-0.3,2.5-0.6c2.6-0.8,5.1-1.8,7.8-2.3c7.5-1.4,15-2.5,22.5-3.8
		c4.5-0.8,9.1-1.6,13.6-2.5c2.7-5.4,9.3-7.6,14.7-4.8c1.2,0.6,2.3,1.4,3.2,2.4c2.2-0.3,4.4-0.5,6.6-0.8c4.5-0.7,9.1-1.4,13.6-2
		c2.1-0.3,4,1.1,4.5,3.2c0.7,2.2-0.4,3.9-2.4,4.9c-1.2,0.6-2.5,1.1-3.8,1.4c-1.9,0.5-3.4,1.4-4,3.4c-0.8,2.6-2,4.6-5.1,4.8
		c-1.8,8-6.2,13.8-13.9,16.9c2.3,0.6,4.6,1.6,7,1.7c5.9,0.2,11.4-1.8,16.9-3.6c4.1-1.4,8.4-2.5,12.6-3.5c4.7-1.1,9.5-1.6,11.9-6.7
		c2.4-2.3,4.7-4.7,7.3-6.7c3-2.4,6.5-1.7,9.2,1.5c3.9-3.1,7.7-6.3,11.7-9.4c1.4-1,2.8-1.8,4.3-2.6l-0.2-0.5h-10.5
		c-1.9,0.8-3.8,1.5-5.7,2.2c-3.5,1.3-6.5,0.8-8.9-2.2c-2.4,0.1-4.8,0.3-7.1,0.4s-3.7-1.1-4.3-3.3s0.4-3.3,2.1-4.3c1-0.5,2-1,2.9-1.6
		c1.3-1,2.4-2.2,3.6-3.3c1.8-1.8,3.5-3.7,5.4-5.4c3.9-3.4,7.2-3.1,10.8,0.5c0.6,0.6,1.1,1.3,1.7,2c1.9-0.4,3.7-0.9,5.5-1.6
		c13.1-5.9,21-16.8,27.7-28.9C478.3,521.9,478.4,520.1,476.7,519L476.7,519z M76.4,412.6c0.4-3.8-1.6-6.6-4.3-8.8
		c-5.2-4.1-9-9.8-10.7-16.3c-1.7-6.5-1-13.1-1.4-19.7c-0.2-3.1-0.9-6.1-2.1-8.9c-2.8-6.3-2.4-12,1.7-17.5c0-2.6-0.2-5.2,0-7.8
		c0.3-3.9,2.7-5.5,6.4-4.4c1.9,0.8,3.7,1.7,5.5,2.7c0.8-2.7,1.8-5.3,2.5-8c1-3.6,2.1-7.7-0.9-10.6c-2.3-2-5.1-3.5-8-4.4
		c-4-1.4-5.5-2.8-5.6-7.1c-0.2-3.3-0.2-6.6,0-9.8c0.3-4.3,1.2-8.5,2.5-12.5c1.4-3.8,4.1-7.1,6.1-10.8c4.5-8,4.2-12.8-1.5-20.1
		c-1.4-1.8-2.9-3.6-4.3-5.4l-0.9-0.1c-1.3,2-2.8,4-4,6.1s-2.7,2.7-5,1.5c-1-0.6-2-1.3-3-2v23.7c1.2-0.8,2.1-1.5,3.1-2.1
		c0.9-0.7,2.3-0.5,3,0.4c0.2,0.3,0.4,0.6,0.4,1c0.2,0.9,0.1,1.9-0.3,2.8c-5,10.3-5.7,21.4-6.8,32.5c-0.7,7-1.4,14.1-2,21.1
		c-0.8,8.4-1.7,16.8-2.2,25.2c-0.2,5,0,10,0.5,15c0.4,4.5,1.3,8.9,1.9,13.3l0.6,0.1l3.3-6.9c3,1.9,3.5,4.6,3.3,7.8
		c-0.5,6.7-1,13.5,6.2,17.5c2.6,0.3,3.3,2.5,3.7,4.4c0.4,2.5,0.6,5,0.7,7.6l2.4,0.1c3-0.6,6.1,0.1,8.5,1.9
		C76.1,413.4,76.3,413,76.4,412.6z M550.8,451.3c-0.9,0-1.7,0.1-2.6,0.3c-3.5,0.6-5.8,3.1-8.5,5.1c-2.5,1.8-5.1,3.5-7.8,4.8
		c-1.1,0.6-2.7,0.3-4.4,0.5c0.5,1,1,2,1.4,3.1c0.5,1.9,1.5,4.1-1.2,5.3c-2,3.3-3.8,6.7-6,9.9c-2.1,3-5.1,3.7-9.2,2.4
		c-2.6-0.1-5.2,0.6-7.4,2c-1.7,1-3.4,1.9-5.1,2.9l-4.9,7.7c-0.7,3.2-1.5,6.3-2.2,9.5s1.1,5.1,4.2,4.2c2.2-0.7,4.3-1.6,6.4-2.6
		c1.9-0.9,3.9-1,5.3,0.7s0.8,3.4-0.2,5.1c-4.4,7.2-8.9,14.4-13.3,21.6c-1.6,2.5-3.1,5.1-4.6,7.7l0.4,0.5c1.4-0.7,2.8-1.2,4.2-2
		c4.5-2.7,7.2-6.8,9.3-11.5c0.4-3.9,3.8-6.8,7.7-6.5c0.8,0.1,1.6,0.2,2.4,0.3c4.5-0.6,8.8-2.5,12.2-5.5c4.1-3.5,7.8-7.4,10.9-11.8
		c4.1-6.1,7.3-12.8,10.9-19.2c-1.6,1.1-3.5,1.9-4.8,3.3c-4.7,5.2-8.9,6-13.2-2.2c-1-2.2-1.2-4.7-0.6-7.1c1.5-7,7.8-11.6,13.8-10.5
		c3.4,0.6,5,2.3,5.2,5.8c0.2,1.8,0.3,3.7,0.5,5.5c3-0.3,3.8-0.8,3.7-3.8c0-3.6-0.2-7.2-0.6-10.7c-0.6-3.2-0.1-6.4,1.4-9.3
		C556.4,452.9,556.7,451.8,550.8,451.3L550.8,451.3z M92.5,201c-2.4,1-4.6,2.4-6.6,4.1c-3.7,3.4-7,7.1-10.4,10.8
		c-2.3,2.5-4.3,5.3-6.4,7.9c0.1,0.8,0.1,1.6,0.2,2.3c1.1,2.1,2.3,4.1,3.3,6.3c4.9,10.9,8,22.5,9.1,34.4c0.2,2.1,0.5,4.3,0.7,6.7
		c2.7-2.5,4.6-5.7,5.5-9.2c1.5-6.1,2.9-12.2,4.3-18.3c0.3-1.2,0.5-2.5,0.4-3.8c-0.3-4.5-0.8-9-1.2-13.5c-0.3-4.1-0.5-8.1,1.7-11.8
		l3-5.7c-0.1-1.5-0.3-3-0.4-4.4c0-1.2,0.3-2.4,0.3-3.5C96.1,200.7,94.9,199.9,92.5,201z M201.5,580.8c-2.7-1.1-5-3.2-6.3-5.9
		c-2.7-5.5-7-9.9-12.8-11.7c-8.2-2.6-16.8-4.1-25.2-6.1c0,3.1-0.1,6.1-0.1,9.2c2,0.9,4.4,1.3,5.9,2.7c5.6,5.3,11.9,9.8,18.6,13.6
		c7.6,4.5,16,7.2,24.7,8.2l0.2-2.2c-0.7-1.7-1.5-3.3-2.2-5L201.5,580.8z M127.6,528.6c-6.5-9.4-12-19.3-15-30.5
		c-1.1-4-2.6-7.9-5.6-10.9c-2.2-2.2-4.5-4.3-6.7-6.4s-4.5-2.8-6.6-1.7s-3.6,4.5-3.3,7c0.8,4.7,2.7,9.2,5.5,13.1
		c1.6,2.2,2.9,4.6,3.9,7.1c0.8,2.6,1.5,5.3,2,8c7-4.7,10-4,14.2,3.5c1,1.8,1.8,3.7,2.7,5.5c1,2.7,2.1,5.4,3.3,8c1,2.1,2.5,4,4.2,5.5
		c3,2.2,4,1.6,4.6-2.2l-0.7-2.7C129.2,530.8,128.4,529.7,127.6,528.6L127.6,528.6z M359.7,589.6c-1.7-2.2-4-2.3-6-0.5
		c-1.4,1.4-2.6,3-4,4.4c-0.6,0.5-1.5,0.8-2.3,0.6c-10.4-4.1-19.1-0.5-27.4,5.6c-1,0.8-1.1,1.5-0.3,2.6c1.9,3.2,5.8,4.4,9.2,2.9
		c4.7-1.9,10-1.8,14.6,0.1c1.9,0.7,3.9,0.8,5.8,0.5c3-0.5,3.9-2.9,2.5-5.6c-0.8-1.5-1.6-2.9-2.4-4.4c5.4-1.5,5-1.9,6.6,3.3
		c0,0.1,0,0.2,0.1,0.2c1.2,3.5,3,3.9,5.9,1.6c1.1-0.9,2.5-1.7,3.7-2.5l-2.5-3.8C362,593,361,591.2,359.7,589.6L359.7,589.6z
		 M114.3,205.3c1.5-2.2,2.8-4.6,3.9-7c0.7-1.2,1.2-2.5,1.9-3.8c0.1-0.6,0.3-1.2,0.4-1.8c1-4.4-0.6-6.4-5.1-6.3
		c-0.2,2.2-1.4,2.2-3,1.5c-1-0.5-2-1-3.2-1.6c-1.5,3.6-2.9,6.9-4.1,10.3c-0.5,1.6-0.8,3.3-0.7,4.9c-0.1,2.5,1.4,4.8,3.7,5.7
		C110.3,208.1,112.9,207.3,114.3,205.3z M78.7,424.3l-7.1,4.5c0.6,5.1,1.8,10.1,5.6,14.5c1.3-3,2.5-5.6,3.7-8.3
		c0.7-1.4,1.4-2.8,2-4.2c1.2-2.7,0.9-4.1-1.3-6.3L78.7,424.3z M184.4,292.3c-4.7,5.5-9.5,10.9-13.8,16.7c-4.4,6-7.9,12.6-10.3,19.6
		c-1.3,3.6-0.3,6.7,2.4,8.5c2.9,2,5,1.8,8.4-1c0.4-0.5,0.9-0.9,1.4-1.3c2.3-1.6,4.7-2.9,7.2-4.1c1.3-0.3,2.6,0.1,3.5,1
		c0.6,0.6,0.3,2.4-0.1,3.4c-1.8,4.1-3.8,8.2-5.9,12.3c-2.1,4-3.9,8.3-6.7,11.8c-3.4,4.4-5.6,9.7-6.3,15.2c-0.7,4.4,1.2,8.1,3.6,11.6
		c2.9,4.1,4.7,8.5,4.1,13.6c-0.1,1.2,0,2.4,0.2,3.5c2,7.5,6.3,13.5,11.4,19.1c2.5,2.8,5.5,2.1,7-1.4c0.7-1.7,1-3.5,1.6-5.2
		s1.5-3.2,3.7-3.1c2.7,0.2,4.9,2.2,5.3,4.8c0.3,1.9,0.4,3.8,0.5,5.7c0.1,2.9-0.2,5.8,0.1,8.6c2.5,17.4,19.2,31.6,38.1,28.3
		c2.4-0.4,5.1,0.2,7.5,0.9c2.3,0.8,4.6,1.8,6.7,3c8.7,4,17.5,6.7,27.7,4.8c-3-1.5-5.9-3.2-8.7-5c-10.7-7.6-20.9-15.9-29.2-26.3
		c-6.7-8.3-11.3-18-13.5-28.4c-1.1-5.4-4.6-8.8-10.9-7.4c-6.9,1.5-10.6-1-12.8-7.7c-0.5-1.4-0.8-2.8-1.2-4.1
		c-1.1-3.4-2.1-6.9-5.5-8.6c-1.6-0.7-3.3-1.2-5-1.5c-4.5-0.7-5.8-2.8-4.4-7.2c0.2-0.6,0.4-1.2,0.8-1.8c4.7-7.3,6.3-15.4,6.5-23.9
		c0-2.1,0-4.2,0.2-6.2c0.4-5.8,1-11.6,1.2-17.4c0.1-4-2.5-6.3-6.5-6.4c-1,0-1.9,0-3.6,0c1.4-1.7,2.1-2.8,3.1-3.8
		c2.9-2.8,5.8-5.7,8.9-8.4c4.9-4.4,6.6-10.2,3.2-16.9c-0.3-0.7-0.2-1.6,0.2-2.2c2.1-1.9,4-4.2,6.5-5.1c4-1.6,7.2-3.4,9-7.5
		c0.6-1.5,2.4-2.2,3.9-1.6c0.1,0,0.1,0,0.2,0.1c1.7,0.6,2.1,2,2.1,3.6c-0.1,2.2,0,4.3,0.2,6.5c0.7,4,2.4,4.7,6,2.7
		c0.5-0.3,0.9-0.6,1.4-0.9c5.6-3.6,11-7.3,16.8-10.6c10.4-6,21.5-9.6,33.6-9.5c2.9,0,5.9,0.4,8.8,0.4s4.6-1.2,4.7-3.5
		c0.2-3.3-1.2-5.3-4.2-5.5c-2.7-0.2-5.4,0-8-0.1c-7.6-0.3-15.3-0.9-22.9-0.9c-7.2,0-14.1,3.3-18.5,9c-1.9,2.4-5.2,3.2-7.9,1.8
		c-2.4-1.3-3-3.5-2-6.8c0.7-2.3,1.3-4.6,1.8-6.9c0.4-1.7-0.3-3.5-1.9-4.3c-1.6-0.9-3.5-0.7-4.9,0.5c-1.4,1-2.8,1.8-4.3,2.6
		c-9.2,4.9-18.3,9.6-27.5,14.5c-2.8,1.4-5.1,3.7-6.3,6.6c-1.1,2.8-0.9,5.9,0.3,8.6c1.5,3.6,0.3,6.4-2.2,8.8
		C187.4,289.5,185.7,290.7,184.4,292.3L184.4,292.3z M380.4,398.7l0.2,0.7c2.9-0.5,5.8-0.8,8.6-1.5c3.3-0.8,6.5-2.1,9.7-3
		c1.4-0.4,2.9-0.3,4.2-0.5c9.2-1.8,16.8-6.6,23.4-13.1c3.2-3.1,5.9-6.7,8.8-10c1-1.1,1.9-2.4,3.8-1.8s2.4,2,2.2,3.8
		c-0.2,2.4-0.3,4.8-0.8,7.1c-2.6,13.7-10.7,24-21.8,31.7c-6.9,4.8-15.1,7.8-22.8,11.5c-6,2.8-11.9,5.7-17,10.6c1,0,1.5,0,2,0
		c7.5-0.7,15-2.5,22-5.3c9.7-3.9,19.3-8,29-11.8c4.5-1.8,6.7-4.5,7-9.5c0.4-7.4,2.2-10.6,9.9-12.2c3.5-0.7,6.5-2.7,8.5-5.6
		c3.8-5.4,6-11.7,6.5-18.2c0.4-4.9-0.3-9.4-4.8-12.7s-5.6-8.2-4.2-13.7c2.2-8.6,4.5-17.2,6.4-25.9c1.4-7.5,1.3-15.1-0.4-22.5
		c-1.5-7.7-6.5-14.2-7.3-22.1c-0.4-3.2-1.4-6.4-1.5-9.6c-0.2-7,0.1-14-0.1-21c-0.1-3.2-1.1-6.4-1.6-9.5l-0.6,0.1c-0.2,1-0.4,2-0.6,3
		c-0.9,6.2-1.7,12.4-2.5,18.6c-0.8,6.2-1.9,12.6-2.2,18.9c-0.5,11-0.4,22-0.6,33c0,1.8,0,3.7,0.1,5.5c0.4,5.7,1,11.4,1.3,17.1
		c0.1,1.4-0.5,2.7-1.5,3.7c-0.7,0.5-2.5-0.3-3.7-0.9c-1.4-0.6-2.7-1.6-4.1-2.4c-0.3-0.2-0.7-0.3-1-0.3c-1,5.5-1.7,10.9-3.1,16
		c-3.2,11.5-9.1,22-17.2,30.7c-7.4,8.1-17,13.1-26.8,17.6C385.3,396.3,382.9,397.5,380.4,398.7L380.4,398.7z M334.8,427.7
		c-5.4,2.9-11.1,4.8-17.4,4c-7.5-0.9-13-4.9-17.4-11c-4.1-5.7-9.9-9-17-7c-6,1.7-14-2.9-16.5-7.4c-3.5-6.4-7.5-12.4-11.2-18.6
		c-4.5-7.6-9-15.2-13.2-23c-1.5-2.6-2.2-5.7-3.5-9c0,2.2-0.2,3.9,0,5.6c1,9.1,4.4,17.4,7.8,25.7c2.8,6.6,5.1,13.4,6.8,20.3
		c1.8,7.9,5.5,14,12.3,18.3c4.1,2.6,8.4,4.9,12.7,7.2c4.4,2.3,8.3,5.5,11.4,9.4c1.4,1.9,2.8,2.2,4.7,1.4c4.8-2.4,9.5-1.5,14,0.6
		c6.4,2.9,13,4.8,20.1,4.3c5.7-0.4,11-3,14.9-7.2c3.6-3.9,7.6-7.5,11.8-10.7c10.3-7.5,22.4-11,34.5-14.3c9.1-2.5,17.4-6.2,23.8-13.4
		c1.4-1.6,2.5-3.5,3.8-5.2l-0.5-0.4l-1,0.5c-6.1,3-11.9,6.6-18.3,8.8c-12.3,4.2-24.8,7.5-37.2,11.2
		C351.4,420.1,342.9,423.5,334.8,427.7L334.8,427.7z M409.6,217.7c0.4,2.2,0.6,4.4,0.6,6.6c0.1,6.6,3.5,10.5,10.1,10.4
		c5.5-0.1,7.2,3,8.1,7.3s1.4,8.7,2.1,13.1c0.3-0.1,0.5-0.1,0.6-0.2c0.3-0.2,0.5-0.4,0.7-0.7c4.8-6,7.5-13.5,7.7-21.2
		c0.1-7.6-2-14.8-3.9-22c-1.8-7-6.2-13.1-12.4-17c-6.5-4.2-13.6-7.7-20.4-11.5c-1.5-0.8-3.1-1.3-4.6-2l-0.4,0.5
		c0.9,1.6,2,3.2,3.1,4.8c3,3.8,6.5,7.3,9.2,11.3c3.3,5,4.5,10.4,0.4,15.8C409.4,214.4,409.1,216.1,409.6,217.7L409.6,217.7z
		 M481.3,328.5c-1.7-8.1-4.2-16-6.4-24c-0.8-3-1.6-6.1-2.4-9.1c-1,22.4,1.1,44.8-3.2,67c2.8,0.1,5.4-1.3,6.9-3.7
		C482.3,349.4,483.5,339,481.3,328.5L481.3,328.5z M255,485.3c0.1,0.3,0.2,0.6,0.4,0.8c0.3,0.4,0.7,0.7,1.1,1
		c16,10.9,33.4,15.9,52.7,12.6c6-0.9,11.6-3.4,16.3-7.3c-11.8-0.4-23.6-0.9-35.3-1.3C278.2,490.5,266.5,488.6,255,485.3z"/>
</g>
<g id="dark-green">
	<path id="dark-green-2" class="st2" d="M400.2,135.1c0.3,0.1,0.7,0.1,1,0c4.1-1.6,8-0.5,11.9,0.9c4.2,1.4,8.5,2.5,12.6,4.1
		c2.8,1.1,5.2,3,8,4.3c8.9,4.1,16.5,10.1,24.4,15.8c1.6,1.2,3.2,2.4,4.9,3.7c-1.1,1.6-2.8,2.5-4.7,2.4c-2.1,0-4.3,0.2-6.4,0.6
		c-3,0.8-3.2,2.8-1.2,5.1c2.8,3.3,5.3,6.8,8,10.1c3,3.8,6.4,7.2,11.7,7.3c0.8,0,1.5,0,2.3,0c2.3,7.6,6,14.6,11,20.8
		c1.6,2,1.3,7.8-0.7,9.4c-1.2,1-2.6,1.9-4,2.6c-3.3,1.6-4.8,4.7-2.5,7.6c4,5.1,5,11.4,7.7,17c1.1,2.3,2.7,4.3,4.6,5.9
		c3.2,2.4,5.5,5.8,6.6,9.6c0.4,2,0.5,4,0.2,6.1c-0.4,7.7,1,15.2,3.1,22.6c1.6,5.7,3.9,11.2,5.8,16.8c2.3,6.9,4.7,13.7,6.9,20.7
		c1.5,4.9,2.7,9.8,4,14.7c0.6,2.4,2.2,4.1,4,3.7c1.8-0.4,2.5-1.9,2.8-3.9c0.9-7.2,0.6-14.5-1-21.6c-1.5-6.8-3.1-13.5-5-20.2
		c-1.1-3.8-2.9-7.4-4.3-11.1s-1.3-7.4,1.6-10.7c1.9,0.4,3.1,2.3,2.8,4.2c-1.2,6.9,2.9,12.3,4.9,18.3c0.8,2.3,1.5,4.7,2.1,7.1
		c1.6,6,3.5,11.9,4.6,18c1.1,6.1,1.6,12.3,1.7,18.5c0,5.5-1,11.1-1.8,16.6c-1.1,8.3-3.2,16.3-6.2,24.1c-1,2.5-2.4,4.9-3.4,7.4
		c-1,2.5-1.2,5.3-2.4,7.7c-3,6.2-6.2,12.2-9.4,18.3c-4,7.5-8.4,14.9-10.3,23.3c-0.1,0.3-0.3,0.5-0.5,0.8c-5,0.4-8.7,3.2-12.3,6.3
		c-10.3,8.6-21.6,15.2-35,17.7c-1.1,0.3-2.1,0.8-3,1.4c-2.9,1.6-5.6,3.4-8.5,4.7s-6,2.2-8.9,3.4c-0.7,0.3-1.1,1.3-1.7,2
		c0.6,0.5,1.2,1.2,1.9,1.3c1.6,0.2,3.2,0.3,4.8,0.3c1.3-0.1,2.6-0.1,4-0.2c2-0.1,4-0.4,5.1,2c1.2,2.8,0.8,5.3-1.4,6.8
		c-1.9,1.4-3.8,2.7-5.7,4c-0.6,0.6-1.1,1.2-1.6,1.9c-3.7,6.7-9,8.2-16,5.3c-3.8-1.4-7.8-2.4-11.9-2.7c-5.1-0.5-10.3-0.4-15.5-0.6
		c-2.1-0.1-4.4-0.8-6.4-0.4c-3.2,0.7-4,3.6-1.9,6.2c0.9,0.9,1.8,1.8,2.8,2.5c1.7,1.4,1.5,2.5-0.6,3.4c-1.3,0.5-2.6,1.1-3.8,2
		c-3.3,2.6-7.1,3-11.1,3.2c-7.3,0.4-14.5,1.1-21.7,1.8c-4.6,0.4-9.3,1-13.9,1.5c-2.9,0.3-4.2,1.3-4.8,4.3c-2.8,0.8-5.6,1.8-8.4,3
		c-2.7,1.3-5.2,2.7-8.3,2.3c-1-2.6-3.6-1.9-5.5-2.7c-7.5-3.1-15.4-3.8-23.3-4.9s-15.4-3.4-21.5-9c-1.8-1.6-3.7-3.1-5.7-4.4
		c-5.3-3.5-10.2-3.2-15.2,0.8c-2.4,1.9-5.4,1.4-6.7-1.5c-2.8-6.2-7.1-11.3-12-16c-7.3-6.9-12.9-15.5-16.1-25.1
		c-1.7-5-4.9-9.4-7.4-14.1c-0.4-0.7-0.9-1.4-1.5-2.2c-0.2,0.4-0.4,0.8-0.6,1.2c0,2,0,4-0.1,6c-0.9,13.5,0.5,26.8,5.7,39.4
		c0.7,2,1.3,4.1,1.8,6.2c-4.1,1.6-6.5-0.3-9-3.5c-4.2-5.7-9.5-9.8-17.2-9.5c2.8-3.7,2.7-7.6,0.7-11.6c-1.3-2.5-2.5-5.1-3.7-7.6
		c-0.2-5.7-3.2-10.3-5.8-15c-3-5.5-7-10.8-7.5-17.2s-4-10.6-7.8-14.8c-3-3.3-6.6-6-9.6-9.3c-1.8-2-3.3-4.2-4.4-6.7
		c-3.8-8.6-6.5-17.5-6.7-27c-0.1-5.2-0.4-10.5,0.3-15.7c0.9-6.3,2.8-12.4,4.3-18.6c0.8-3.4,0.9-6.6-1.1-9.9
		c-12,13.8-15.5,30.7-19.4,47.5c-3.3-6.7-6.6-13.2-9.7-19.9c-2.1-4.6-3.5-9.5-2.5-14.6c0.9-4.8,2.1-9.6,3.6-14.2
		c3.3-10.2,7.2-20.2,9.2-30.9c0.5-2,1.6-3.8,3.1-5.2c4-3.4,7.5-7.4,10.4-11.8c5.2-7.7,10.6-15.3,15.6-23.2c0.7-1.6,0.7-3.5,0-5.1
		c-0.8-1.7-2.6-0.4-4,0c-3.7,1.1-7.4,2.4-11.2,2.9c-3.2,0.4-5.5-3.2-4.4-6.3c0.5-1.4,1.2-2.8,2.1-4c3.4-4.9,5.9-10.4,7.3-16.2
		c1.1-4.6,2.4-9.2,4-13.7c2-5.6,5.4-10,11.5-11.4c4.9-1.1,9.8-1.9,14.7-3c1.4-0.4,2.7-0.8,4-1.4c4.3-1.5,8.7-2.9,12.9-4.7
		c2.3-1,3-3.5,3.4-5.9c1-5.9,4.6-9.4,10.3-10.4c11.5-2.2,20.8-8.1,29-16.1c5-4.8,11.2-7.7,17.5-10.3c4-1.6,8-3.4,11.9-5.3
		c7.7-3.7,15.3-2.5,21.4,3.4c2.7,2.7,5.7,5.3,10,4.5c1.9-0.4,3.8-1,5.6-1.8c7.2-3.1,14.2-6.6,21.6-9.4c4-1.5,8.4-2,12.7-2.6
		c4.7-0.8,8.3,1.6,11.5,4.5c2.2,2,5.1,3.2,8.2,3.2c8,0.4,15.8,2.4,23.1,5.7c7.6,3.4,15.1,7.1,22.7,10.5c8.6,3.9,17.4,6.9,27,7.7
		c6.2,0.5,11.4,3.4,16.1,7.5c7.5,6.5,12.4,14.9,18.5,22.5c2.3,2.8,4.8,5.5,7,8.4c0.7,0.9,1.6,2.6,1.2,3.4c-3,7.1-0.8,13.5,2.1,19.9
		c0.7,1.8,1.6,3.5,2.7,5c0-5.5,0-10.9,0-16.4c0-8-0.5-15.9-3.9-23.2c-1.9-4.1-4.3-7.9-7.1-11.4c-4.4-5.6-9.1-10.9-14.1-16
		c-5.6-5.7-12.9-9.4-20.8-10.8c-2.1-0.5-4.1-1.3-5.9-2.4c-2.2-1.3-2.3-3.2-0.2-4.7c1.7-1.3,3.9-2.4,3.5-5s-3.1-2.2-4.9-3.2
		c-4.3-2.4-8.9-4.6-12.2-8.4C399.5,140.1,399.6,137.6,400.2,135.1z M269.2,372.6c0-0.1,0-0.1-0.1-0.2c0,0-0.1,0-0.2,0L269.2,372.6
		c2.8,7.1,5.5,14.4,10.8,20.1c3.8,4.2,10.6,7.1,15,6.7c-6.4-8.8-13.8-16.8-22-23.9C271.8,374.4,270.5,373.5,269.2,372.6z
		 M491.8,319.8l-0.3-0.1L491.8,319.8c0.1,0.8,0.3,1.6,0.5,2.3c3.5,9.5,5.2,19.4,6.3,29.4c0.7,7.4,1.7,14.7,2.2,22.1
		c0.3,5.1,0.8,10.5-0.3,15.4c-2.1,9.7-7.9,17.3-15.9,23.2c-2.4,1.7-4.9,3.3-7.3,5c-4.4,3.2-7.6,7.3-8.5,12.8c-0.7,4.6-4.6,8-9.2,8.2
		c-1,0-2.1,0.2-3.1,0.4c-7,1.4-12.6,5.3-17.9,9.8c-7,6.1-15.3,10-23.7,13.7c-1.3,0.5-2.7,0.8-4.2,1c-2.6,0.4-5.2,0.6-7.8,1
		c-10.1,1.7-18.5,6.2-24.1,15.3c-1,1.5-3.2,2.6-5,3.2c-11.9,3.5-23.9,6.8-35.8,10.1l0.1,0.7c1.5,0.3,3,0.4,4.5,0.4
		c12.6-0.6,25.2-1.1,37.7-1.9c9.6-0.4,18.6-4.7,25.1-11.9c6.4-6.9,14.8-10.4,23.9-11.5c7.3-0.8,14.3-3.3,20.4-7.3
		c5.1-3.3,10.3-6.2,15.9-8.7c2.6-1.1,5-2.7,6.9-4.8c7.8-8.8,15.9-17.3,23.6-26.1c7.3-8.4,13.1-17.8,15.4-28.8
		c0.8-3.7,1.6-8,0.6-11.5c-1.9-6.7-3.2-13.5-3.7-20.4c-0.5-6.9-1.1-13.8-3.7-20.4C501.8,332.7,497.8,325.6,491.8,319.8L491.8,319.8z
		 M204.9,233.3c0.6-0.9,0.9-1.4,1.2-1.9c2.8-3.9,5.3-8.2,8.6-11.7c6.1-6.5,12.7-12.6,19.1-18.8c0.3-0.3,0.7-0.6,1.1-0.9
		c1.9-1.2,3.6-0.7,4.4,1.4c0.5,1.2,0.7,2.5,1.1,3.7c1.6,5,5.5,6,9.3,2.5c0.7-0.6,1.3-1.2,1.8-2c2.5-3.5,6-6.1,10-7.6
		c2.3-0.9,4.7-1.7,7-2.5c4.5-1.6,8.9-3.4,12.2-7.2c0.9-0.8,2.2-1.3,3.4-1.4c4-0.2,7.4,3,7.6,7c0,1-0.1,2.1-0.5,3
		c-1.6,4.1-4.4,7.7-8.1,10.1c-3.2,2.2-3.3,5.7-0.7,7.9c1.8,1.4,4.5,0.9,6.9-1.4c3.3-3.2,7.5-5.3,12-6c4.6-0.8,9.2-1.7,13.9-2.4
		c2.3-0.4,4.6-0.6,6.9-0.5c3.6,0.1,6.6,2.8,7,6.4c0.3,3.1-1.8,5.5-5.8,6.5c-2.2,0.5-4.4,0.7-6.6,1.2c-10.4,2.3-15.8,9.8-19.4,19
		c-0.3,0.8-0.3,1.7-0.2,2.6c0.2,2.4,1.3,3.1,3.5,2.2c4.2-1.7,8.8-2.6,13.3-2.5c3.3,0.1,6.5,0,9.8-0.4c3.8-0.7,7.5-2,11.2-3
		c2.7-0.7,4.1-0.1,5,2.6c0.4,1.1,0.7,2.3,0.7,3.5c-0.1,2.4,0.9,4.8,2.7,6.4c2.8,2.6,5.9,4.8,8.8,7.3c3.6,3,7.7,5.6,10.7,9.1
		c4.2,5.2,8.2,10.6,11.8,16.3c3.3,4.8,6.2,9.9,7.5,15.7c0.5,1.7,1.3,3.3,2.5,4.5c5.5,6.2,3.3,17.7-7.1,18.7c-7.7,0.8-8.5,3.4-4,9.8
		c1.5,2,2.8,4.3,3.7,6.6c1.3,3.8-0.3,7.4-3.9,8.6c-3.7,1.4-7.1,3.3-10.1,5.8c-1.3,1-2.8,1.9-4.3,2.6c-1.9,1.1-4.2,0.9-5.9-0.5
		c-1.5-1.3-2.8-2.8-4-4.4c-1-1.2-1.7-2.7-2.7-3.9c-2.6-3.3-6-3.5-9.1-0.6c-0.9,0.8-1.7,1.7-2.5,2.6c-3.9,3.8-6.2,3.6-9.3-0.8
		c-1.8-2.5-2.6-2.6-5.4-1.2c-1.6,1-3.4,1.7-5.2,2.2c-3.4,0.7-5.1-0.8-5-4.2c0.1-2.5,0.4-4.9,1-7.3c1-4.9,0-7.1-3.9-10.1
		c-2.4-1.8-4.5-4-6.2-6.4c-1.5-2.2-1-4.7,1.1-6.5c1.9-1.7,4-3.2,6.2-4.4c7.3-3.9,11.9-1.4,16.8,3.8c2,2.1,1.6,4.2-0.8,5.9
		c-1.3,1-2.7,1.6-4,2.5c-3.9,2.7-3.9,6,0,8.6c5.4,3.6,11.5,5.1,17.7,6.1c5,0.8,7.8-2.9,10.4-6.5c3-4.3,2.6-6.7-1.7-9.5
		c-2.2-1.4-4.7-2.4-7-3.6c-4.1-2.2-5-5.1-3-9.3c0.3-0.6,0.7-1.3,1-1.9c2.5-4.7,1.2-7.7-3.9-9.3c-6.3-2-12.3-2.5-17.8,2.2
		c-1,0.8-2.3,1.2-3.5,1c-1.5-0.4-2.9-1.4-3.8-2.7c-0.5-1.4-0.5-3,0.2-4.4c0.6-1.1,1.6-2,2.8-2.4c3.5-1.7,7.1-3.3,10.7-4.8
		c4.4-2,9.6-1.9,13.9,0.4c1.1,0.5,2.2,0.8,3.4,1c2.3,0.3,5.5-1.2,6.2-2.9c1.1-2.5-0.4-4-1.9-5.7c-2.7-2.6-6.2-4.4-9.9-5
		c-7.9-1.6-15.4-1-21.6,4.5c-6.3,5.5-7.7,5.5-13.1-0.8c-3.6-4.1-7.9-4.4-11.8-0.6c-0.2,0.2-0.3,0.3-0.5,0.5
		c-3.5,5.4-8.8,8.1-14.7,10.1c-3.5,1-6.5,3.4-8.3,6.5c-0.7,0.6-1.6,0.8-2.5,0.6c-1-0.6-1.8-1.5-2.4-2.5c-2.6-3.8-5.4-4.5-9.1-1.7
		c-3.5,2.4-6.7,5.2-9.6,8.3c-3.6,4.4-6.9,8.9-10,13.7c-4.6,6.8-3.3,13.1,3.5,17.7c2.6,1.8,5.4,3.4,8.1,5.1c4.9,3.2,7.4,7.5,6,13.4
		c-0.6,2.2,0.3,4.6,2.2,5.8c0.9,0.7,1.8,1.4,2.6,2.1c7.1,6,20.7,8.4,28.2,7.8c-4.9-2.4-9.1-6-12.2-10.5c-2.1-3-4.1-6.1-6.1-9.1
		c-4.3-6.4-4.2-8.1,0-14.7c1.3-2.1,1.9-4.7,3-6.9c0.5-0.9,1.7-2,2.4-1.9c5.1,0.8,10.2,2,14.6,5c2.7,1.9,4.1,4.6,3.2,7.9
		c-1,3.4-2.3,6.7-3.9,10c-3.6,7.3-2,12.4,6.5,13.6c5.4,0.7,10,3.4,11.4,9.2c0.7,3,0.6,6.1,0.7,9.2c0.1,2.2-0.4,4.5-0.2,6.7
		c0,4.6,3.7,8.3,8.3,8.3c0.2,0,0.3,0,0.5,0c2.6,0,5.1,0.1,7.7-0.1c5.5-0.4,11-1.2,15.6-4.6c2.8-2.1,5.7-4.1,8.7-5.9
		c6.8-3.9,13.2-8.5,18.9-13.8c2.1-1.8,4.4-3.3,6.8-4.5c2.4-1.2,5.6-0.6,6.8,1.2c1.4,2,0.4,4-0.9,5.5c-3.4,4-6.6,8.2-10.7,11.5
		c-6.8,5.6-14.2,10.6-21.3,15.9c-0.6,0.4-1.1,0.9-1.8,1.5c2.5,2,4.8,1.7,7.1,0.4c5.1-2.9,10.3-5.8,15.5-8.5
		c9.6-5,19.4-9.5,28.8-14.7c7.2-4,14-8.7,18.3-16.1c5.9-9.9,8.4-20.2,4-31.5c-0.8-2.2-1-4.5-0.6-6.8c0.5-2,1.7-3.7,3.3-4.9
		c1.7-1.2,2.9,0.8,4.2,1.8c0.7,0.7,1.5,1.2,2.3,1.6c1,0.2,1.9,0.3,2.9,0.2c-0.7-6.8-1.8-13-5.5-18.4c-2.1-3.1-4.8-5.8-7.2-8.7
		s-4.5-5.6-4.4-9.3c0-8.1-2.9-15.3-6.8-22.1c-4.2-7.2-8.4-14.2-10.6-22.4c-1.2-4.5-4.6-7.6-9.2-9c-2.7-1-5.7-0.6-8,1.1
		c-5.2,3.8-6.8,3.9-12.2,0c-3.4-2.5-6.5-3.2-10.3-0.7c-2.1,1.4-4.7,2-6.9,0.1c-2.2-1.9-3.1-4.8-2.4-7.6c1.2-5.6,5-8.2,10.4-9
		c3.5-0.5,7.1-1.1,9.4-4.1c1.2-1.6,2.1-1.6,3.5-0.7c0.7,0.5,1.4,0.9,2,1.3c3.1,2.3,6.1,4.7,9.2,6.9c1.8,1.2,3.9,1.6,5.8,0.1
		c1.7-1.3,2.3-3.7,1.3-5.6c-1.2-2.9-2.6-5.6-4-8.4c-0.7-1.4-1.5-2.8-0.2-4.2s2.7-2.3,4.6-1.6c1.2,0.4,2.4,0.9,3.5,1.5
		c1.8,1.1,3.4,2.4,5,3.6c1.4,1,2.9,1.4,4.1,0.3c0.5-0.4-0.1-2-0.3-3c-0.2-0.6-0.5-1.2-0.9-1.7c-4.6-7.8-11.6-13.2-18.3-19.1
		c-5-4.4-10.3-5.1-16.5-3.8c-4.4,1-8.9,1.7-13.5,2.1c-13,1-25.4-1.6-37.3-6.8c-3.9-1.8-8.4-1.9-12.3-0.2c-3.8,1.7-8.1,1.9-12.1,0.6
		c-4.9-1.7-9.5-1.2-13.3,2.6c-1.5,1.6-2.9,3.4-4,5.4c-3.6,5.4-7.2,6.5-13.1,4.1c-3.4-1.4-6.8-1.6-9.9,0.3c-4.9,2.8-9.6,6.1-14,9.6
		c-7.3,6.2-12.4,14.4-17.9,22.1c-2.6,3.5-5.2,7.1-7.4,10.8C203.6,226.3,203.5,229.6,204.9,233.3L204.9,233.3z M281.7,468.8
		c-3-1.5-5.9-3.2-8.7-5c-10.7-7.6-20.9-15.9-29.2-26.3c-6.7-8.3-11.3-18-13.5-28.4c-1.1-5.4-4.6-8.8-10.9-7.4
		c-6.9,1.5-10.6-1-12.8-7.7c-0.5-1.4-0.8-2.8-1.2-4.1c-1.1-3.4-2.1-6.9-5.5-8.6c-1.6-0.7-3.3-1.2-5-1.5c-4.5-0.7-5.8-2.8-4.4-7.2
		c0.2-0.6,0.4-1.2,0.8-1.8c4.7-7.3,6.3-15.4,6.5-23.9c0-2.1,0-4.2,0.2-6.2c0.4-5.8,1-11.6,1.2-17.4c0.1-4-2.5-6.3-6.5-6.4
		c-1,0-1.9,0-3.6,0c1.4-1.7,2.1-2.8,3.1-3.8c2.9-2.8,5.8-5.7,8.9-8.4c4.9-4.4,6.6-10.2,3.2-16.9c-0.3-0.7-0.2-1.6,0.2-2.2
		c2.1-1.9,4-4.2,6.5-5.1c4-1.6,7.2-3.4,9-7.5c0.6-1.5,2.4-2.2,3.9-1.6c0.1,0,0.1,0,0.2,0.1c1.7,0.6,2.1,2,2.1,3.6
		c-0.1,2.2,0,4.3,0.2,6.5c0.7,4,2.4,4.7,6,2.7c0.5-0.3,0.9-0.6,1.4-0.9c5.6-3.6,11-7.3,16.8-10.6c10.4-6,21.5-9.6,33.6-9.5
		c2.9,0,5.9,0.4,8.8,0.4s4.6-1.2,4.7-3.5c0.2-3.3-1.2-5.3-4.2-5.5c-2.7-0.2-5.4,0-8-0.1c-7.6-0.3-15.3-0.9-22.9-0.9
		c-7.2,0-14.1,3.3-18.5,9c-1.9,2.4-5.2,3.2-7.9,1.8c-2.4-1.3-3-3.5-2-6.8c0.7-2.3,1.3-4.6,1.8-6.9c0.4-1.7-0.3-3.5-1.9-4.3
		c-1.6-0.9-3.5-0.7-4.9,0.5c-1.4,1-2.8,1.8-4.3,2.6c-9.2,4.9-18.3,9.6-27.5,14.5c-2.8,1.4-5.1,3.7-6.3,6.6c-1.1,2.8-0.9,5.9,0.3,8.6
		c1.5,3.6,0.3,6.4-2.2,8.8c-1.5,1.5-3.2,2.7-4.6,4.2c-4.7,5.5-9.5,10.9-13.8,16.7c-4.4,6-7.9,12.6-10.3,19.6
		c-1.3,3.6-0.3,6.7,2.4,8.5c2.9,2,5,1.8,8.4-1c0.4-0.5,0.9-0.9,1.4-1.3c2.3-1.6,4.7-2.9,7.2-4.1c1.3-0.3,2.6,0.1,3.5,1
		c0.6,0.6,0.3,2.4-0.1,3.4c-1.8,4.1-3.8,8.2-5.9,12.3c-2.1,4-3.9,8.3-6.7,11.8c-3.4,4.4-5.6,9.7-6.3,15.2c-0.7,4.4,1.2,8.1,3.6,11.6
		c2.9,4.1,4.7,8.5,4.1,13.6c-0.1,1.2,0,2.4,0.2,3.5c2,7.5,6.3,13.5,11.4,19.1c2.5,2.8,5.5,2.1,7-1.4c0.7-1.7,1-3.5,1.6-5.2
		s1.5-3.2,3.7-3.1c2.7,0.2,4.9,2.2,5.3,4.8c0.3,1.9,0.4,3.8,0.5,5.7c0.1,2.9-0.2,5.8,0.1,8.6c2.5,17.4,19.2,31.6,38.1,28.3
		c2.4-0.4,5.1,0.2,7.5,0.9c2.3,0.8,4.6,1.8,6.7,3C262.6,468,271.5,470.7,281.7,468.8L281.7,468.8z M450.3,234.3l-0.6,0.1
		c-0.2,1-0.4,2-0.6,3c-0.9,6.2-1.7,12.4-2.5,18.6c-0.8,6.2-1.9,12.6-2.2,18.9c-0.5,11-0.4,22-0.6,33c0,1.8,0,3.7,0.1,5.5
		c0.4,5.7,1,11.4,1.3,17.1c0.1,1.4-0.5,2.7-1.5,3.7c-0.7,0.5-2.5-0.3-3.7-0.9c-1.4-0.6-2.7-1.6-4.1-2.4c-0.3-0.2-0.7-0.3-1-0.3
		c-1,5.5-1.7,10.9-3.1,16c-3.2,11.5-9.1,22.1-17.2,30.9c-7.4,8.1-17,13.1-26.8,17.6c-2.5,1.1-4.9,2.3-7.3,3.5l0.2,0.7
		c2.9-0.5,5.8-0.8,8.6-1.5c3.3-0.8,6.5-2.1,9.7-3c1.4-0.4,2.9-0.3,4.2-0.5c9.2-1.8,16.8-6.6,23.4-13.1c3.2-3.1,5.9-6.7,8.8-10
		c1-1.1,1.9-2.4,3.8-1.8s2.4,2,2.2,3.8c-0.2,2.4-0.3,4.8-0.8,7.1c-2.6,13.7-10.7,24-21.8,31.7c-6.9,4.8-15.1,7.8-22.8,11.5
		c-6,2.8-11.9,5.7-17,10.6c1,0,1.5,0,2,0c7.5-0.7,15-2.5,22-5.3c9.7-3.9,19.3-8,29-11.8c4.5-1.8,6.7-4.5,7-9.5
		c0.4-7.4,2.2-10.6,9.9-12.2c3.5-0.7,6.5-2.7,8.5-5.6c3.8-5.4,6-11.7,6.5-18.2c0.4-4.9-0.3-9.4-4.8-12.7s-5.6-8.2-4.2-13.7
		c2.2-8.6,4.5-17.2,6.4-25.9c1.4-7.5,1.3-15.1-0.4-22.5c-1.5-7.7-6.5-14.2-7.3-22.1c-0.4-3.2-1.4-6.4-1.5-9.6c-0.2-7,0.1-14-0.1-21
		C451.8,240.6,450.8,237.5,450.3,234.3z M417.1,397.6l-0.5-0.4l-1,0.5c-6.1,3-11.9,6.6-18.3,8.8c-12.3,4.2-24.8,7.5-37.2,11.2
		c-8.8,2.5-17.2,5.8-25.3,10.1c-5.4,2.9-11.1,4.8-17.4,4c-7.5-0.9-13-4.9-17.4-11c-4.1-5.7-9.9-9-17-7c-6,1.7-14-2.9-16.5-7.4
		c-3.5-6.4-7.5-12.4-11.2-18.6c-4.5-7.6-9-15.2-13.2-23c-1.5-2.6-2.2-5.7-3.5-9c0,2.2-0.2,3.9,0,5.6c1,9.1,4.4,17.4,7.8,25.7
		c2.8,6.6,5.1,13.4,6.8,20.3c1.8,7.9,5.5,14,12.3,18.3c4.1,2.6,8.4,4.9,12.7,7.2c4.4,2.3,8.3,5.5,11.4,9.4c1.4,1.9,2.8,2.2,4.7,1.4
		c4.8-2.4,9.5-1.5,14,0.6c6.4,2.9,13,4.8,20.1,4.3c5.7-0.4,11-3,14.9-7.2c3.6-3.9,7.6-7.5,11.8-10.7c10.3-7.5,22.4-11,34.5-14.3
		c9.1-2.5,17.4-6.2,23.8-13.4C414.7,401.2,415.8,399.3,417.1,397.6z M147.5,325.5c4.7-9.8,9.6-19.1,13.7-28.6
		c4-8.8,6.2-18.4,6.3-28.1c0.1-1.2,0.5-2.3,1.2-3.2c1.8-2.8,4-5.4,5.8-8.2c7.8-12.4,14.6-25.5,25.5-35.8c2.3-2.1,3-5.3,2.2-9.1
		c-6.4,3.9-12.7,7.3-18.5,11.4c-2.6,1.9-4.7,4.6-5.9,7.6c-1.7,4.4-4.7,6.1-9,6.8c-5.2,0.8-9.1,3.3-10.8,8.3
		c-1.1,3.6-1.9,7.2-2.5,10.9c-3.5,19.9-7,39.9-10.5,59.8C144.6,320.2,145.3,322.6,147.5,325.5z M430.5,255.2
		c0.3-0.1,0.5-0.1,0.6-0.2c0.3-0.2,0.5-0.4,0.7-0.7c4.8-6,7.5-13.5,7.7-21.2c0.1-7.6-2-14.8-3.9-22c-1.8-7-6.2-13.1-12.4-17
		c-6.5-4.2-13.6-7.7-20.4-11.5c-1.5-0.8-3.1-1.3-4.6-2l-0.4,0.5c0.9,1.6,2,3.2,3.1,4.8c3,3.8,6.5,7.3,9.2,11.3
		c3.3,5,4.5,10.4,0.4,15.8c-1,1.3-1.4,3.1-0.9,4.7c0.4,2.2,0.6,4.4,0.6,6.6c0.1,6.6,3.5,10.5,10.1,10.4c5.5-0.1,7.2,3,8.1,7.3
		S429.8,250.8,430.5,255.2L430.5,255.2z M296.9,474.4c6.6,5.2,15.2,7.2,23.4,5.2c9.4-2.1,18.5-5.2,27.7-8c1.6-0.6,3.1-1.4,4.4-2.4
		c2.1-1.3,2.9-3.8,2-6.1c-1-2.1-3.4-3.1-5.6-2.5c-7,1.7-14,3.2-20.8,5.3C317.8,469.2,308,473.9,296.9,474.4z M472.6,295.4
		c-1,22.4,1.1,44.8-3.2,67c2.8,0.1,5.4-1.3,6.9-3.7c6.1-9.3,7.3-19.6,5.1-30.2c-1.7-8.1-4.2-16-6.4-24
		C474.1,301.5,473.4,298.4,472.6,295.4L472.6,295.4z M325.5,492.4c-11.8-0.4-23.6-0.9-35.3-1.3c-11.9-0.5-23.7-2.5-35.1-5.8
		c0.1,0.3,0.2,0.6,0.4,0.8c0.3,0.4,0.7,0.7,1.1,1c16,10.9,33.4,15.9,52.7,12.6C315.2,498.8,320.8,496.2,325.5,492.4L325.5,492.4z
		 M401.7,439.5l-0.3-0.9c-4,0.7-8,1.1-11.9,2.1c-6.4,1.7-12.6,4.1-19.4,3.7c-0.8,0-1.5,0.3-2.1,0.8c-1.9,1.7-3.7,3.5-5.4,5.4
		c-1.5,1.6-1.1,3.4,0.8,4.3c1.2,0.6,2.5,0.8,3.9,0.5c4.9-1.3,9.8-2.8,14.6-4.5C389.2,448.5,396.1,445.2,401.7,439.5L401.7,439.5z
		 M490.4,307.3l0.4-0.1c0-7.7,0.3-15.3-0.1-23c-0.2-8.2-2.7-16.2-7.3-23c-2-2.9-2.7-3-6-0.9C481.8,276,486.1,291.6,490.4,307.3
		L490.4,307.3z M432.7,260.3c-1.7,5.6-2.4,11.4-1.8,17.2c0.6,8.2,1.8,16.5,2.7,24.7c0.2,1.8,0.4,3.7,0.5,5.5c0.5-2,1-4.1,1.3-6.2
		c1.5-8.2,3.3-16.4,2.6-24.9C437.6,270.8,435.8,265.2,432.7,260.3L432.7,260.3z M456.7,416.4c11.7-1.7,19.9-7.7,25.9-17.2
		c3.7-6,5.2-14.8,3-18.6c-1.9,7.5-5.8,14.3-11.3,19.8C468.9,405.9,463,410.8,456.7,416.4L456.7,416.4z M302.4,125.7
		c1.4-0.7,2.8-1.5,4.3-2.1c6.6-2.7,12.1-2.1,15.1,5.8c0.2,0.4,0.3,0.9,0.4,1.4c0.8,3,3.1,5.3,6,6.2c2.7,1,5.4,1.8,8.2,2.4
		c10.1,2.5,20.5,3.2,30.9,2.9c3.9-0.1,5.2-1.3,4.4-5.1c-0.6-1.5-1.7-2.8-3.1-3.5c-7.7-4-15.5-8-23.4-11.7
		c-7.2-3.4-14.7-6.3-22.6-7.6c-3.4-0.6-6.8-1.2-10.2-1.8c-0.7,0.2-1.5,0.4-2.3,0.4c-4.9-0.5-9.9-0.6-14.6-1.7
		c-5.2-1.2-10.3-0.5-15.4-0.6c-1.2,0.1-2.3,0.4-3.4,0.8v1.1c3,0.3,6,1,9,0.8c4.5-0.3,9.7,3.8,8.4,8.8
		C295.6,126.3,298.6,127.5,302.4,125.7z M224.9,143.8c3.3,1.6,6.6,2.9,10,0.5c1.4-0.9,2.6-2.1,3.6-3.4c1.9-2.8,3.6-5.8,5.3-8.6
		c-2.3-3.4-3.5-3.8-6.1-1.6c-4.5,3.7-9.9,6.2-15.6,7.2c-1.4,0.2-2.9,0.4-4.7,0.7l4.5,4.1C222.8,143,223.9,143.3,224.9,143.8
		L224.9,143.8z M184,174.1c3.8-3.1,7.6-6.2,11.4-9.3s6.9-6.4,7.5-11.4c-0.4,0.1-0.7,0.2-1.1,0.4c-7.1,5.2-14.2,10.4-21.3,15.6
		c-1.9,1.2-3.6,2.6-5.1,4.2c-0.7,0.8-0.5,2.5-0.2,3.7c0.1,0.4,1.8,0.5,2.8,0.4c0.9-0.1,1.9-0.3,2.8-0.5
		C181.9,176.2,182.9,175.1,184,174.1z"/>
</g>
<g id="white">
	<path id="white-2" class="st3" d="M96.1,422.4c-0.6,3.5,0.5,6.5,2.6,9.4c1.6,2.2,3.1,4.4,4.4,6.8c0.4,1.1,0.7,2.3,0.7,3.5
		c-0.3,3,0.3,6.1-1.4,9c-1.8,3.1-6.2,5.4-9.8,4.9c-8.1-1.2-11.4-7.1-11.4-13.9c0-2.4-0.2-4.8-0.2-7.2c0.7-1.4,1.4-2.8,2-4.2
		c1.2-2.7,0.9-4.1-1.3-6.3c-0.2-2.2-0.4-4.4-0.5-6.6c-0.1-3.9,0.8-5.1,4.8-6l2.3,0.4c0.3,1,0.7,2,0.9,3C90,419,92,421.7,96.1,422.4z
		 M522.4,463.6c-2.2-2.7-3-5.4-1.6-8.7c0.9-2.2-0.5-4.6-2.8-5.5c-0.9-0.4-1.8-0.6-2.6-0.9c-0.3,0.2-0.6,0.3-1,0.4
		c-4.6,0.3-8.8,2.7-11.4,6.5c-0.3,0.7-0.5,1.4-0.6,2.1c0.3,2,0.4,3.9,0.8,5.9c1.6,7.2,5.4,13.4,9.4,19.5c4.1,1.3,7.1,0.6,9.2-2.4
		c2.2-3.2,4-6.6,6-9.9C525.9,468.2,524.2,465.9,522.4,463.6L522.4,463.6z M124,168.1c-1.5-0.5-3-1.1-4,1c-0.9,2.4-2.1,4.6-3.6,6.7
		c-3.7,4.4-4,5.6-1.1,10.6c4.5-0.1,6.2,1.9,5.1,6.3c-0.1,0.6-0.3,1.2-0.4,1.8c0.2,1.2,0.4,2.3,0.5,3.5c0.5,4.5,5.5,7.6,9.5,4.5
		c2-1.5,3.8-3.2,5.4-5c2.4-2.8,3.3-6.1,1.6-9.7c-0.5-1.1-1-2.3-1.5-3.4c-2.9-1.3-4.2-3.7-4.5-6.8c-0.3-2.8-0.5-5.8-2.8-7.9
		C126.8,169.2,125.4,168.6,124,168.1z M153.3,551.6c-3-3.9-7-5.9-12-5.3c-3.8,0.5-7.2,3.9-6.7,7.5c0.8,5.6,3.4,10.4,8.4,13.4
		s9.6,1.1,14.3-0.8c0-3.1,0.1-6.1,0.1-9.2C156,555.3,154.7,553.4,153.3,551.6L153.3,551.6z M490.4,544.4c0.3-1.8-0.5-2.8-2.2-3.6
		c-7.5-3.6-18.7,2.1-19.8,10.4c-0.4,2.6-0.7,5.7,1.8,7.5c2.9,2.1,6.3,4,10.1,2.5c5.2-2.1,11.2-7.2,10.1-14.1
		C490.3,546.2,490.3,545.3,490.4,544.4L490.4,544.4z M549.8,480.5c-0.2-1.8-0.4-3.6-0.5-5.5c-0.3-3.5-1.8-5.2-5.2-5.8
		c-6-1.1-12.3,3.4-13.8,10.5c-0.6,2.4-0.3,4.9,0.6,7.1c4.3,8.1,8.5,7.3,13.2,2.2c1.3-1.4,3.2-2.2,4.8-3.3
		C549.2,484,549.5,482.2,549.8,480.5z M358.8,118.2c2.2,0.9,4.5,1.5,6.8,2c2.4,0.2,4.8,0.2,7.2,0c1.4-2.5,2.8-5,4.1-7.5
		c1.7-3.1,1.7-5.4-0.5-7.4c-3.8-3.4-8.3-5.3-13.6-4.7c-5.8,0.6-8.6,5-6.9,10.6c0.6,1.9,1.1,3.8,1.6,5.7
		C358,117.4,358.3,118,358.8,118.2L358.8,118.2z M100.8,521.3c-0.6,3.5,0.2,7,2,10c2,3.1,4.8,5.3,8.7,4.8c3.5-0.5,4.8-3.3,5.6-6.3
		c0.6-2.2,1-4.4,1.5-6.6c-0.9-1.8-1.7-3.7-2.7-5.5c-4.1-7.5-7.2-8.2-14.2-3.5C101.5,516.5,101.2,519,100.8,521.3L100.8,521.3z
		 M427.4,563.8c0.5,1.7,1.2,3.4,2,5c2.4,3,5.5,3.4,8.9,2.2c1.9-0.7,3.8-1.5,5.7-2.2c1.5-1.8,2.1-4.1,1.8-6.3c-0.4-2.8-1-5.7-1.4-8.5
		c-0.6-0.7-1.1-1.3-1.7-2c-3.6-3.7-7-3.9-10.8-0.5c-1.9,1.7-3.6,3.6-5.4,5.4C426.7,559.1,426.8,561.5,427.4,563.8L427.4,563.8z
		 M373.8,598.6c7.8-3,12.1-8.9,13.9-16.9c-1.9-0.4-3.8-0.7-5.8-0.9c-3-0.3-6-0.2-9,0.1c-2.2,0.4-4.3,1.4-6,2.8
		c-3.2,2.8-3.1,7.1-3.7,11l2.5,3.8L373.8,598.6z M90.9,174.4c0.9,4.3,1.3,6.5,5.2,7.2c5.9,1.1,9.9-1.5,12.9-7.6
		c1.2-2.3,1.3-5,0.2-7.3c-0.5-1.6-0.9-3.2-1.1-4.8c-0.6-0.3-1.1-0.6-1.7-0.9c-5.2-2.7-8.6-1.7-11.5,3.4c-1.5,2.6-2.8,5.3-4.1,8
		C90.7,173.1,90.8,173.8,90.9,174.4L90.9,174.4z M439.9,524.5c-1.5-1.5-3.2-2.8-5.1-3.8c-2.2-1.1-4.3-0.2-4.7,2.2
		c-0.6,3.6-0.9,7.2-1,10.8c-0.2,5,2.1,7.7,7.1,8.7c2.9-0.8,5.7-1.7,8.5-2.8c2.2-1,4.1-2.7,4.5-5.4C446,531,443,527.7,439.9,524.5
		L439.9,524.5z M569.9,419.3c-1.1,4.7,1.3,10,5.6,12c2.2,1.1,4.9,0.5,6.4-1.5c1.2-1.6,2-3.4,2.5-5.3c1.4-6.3-1.7-11.1-5.6-15.6
		c-1.9-2.2-2.9-2-4.7,0.4c-0.8,1-1.6,1.9-2.5,2.7l-0.7,0.8c-0.5,2.2-0.7,4.4-1.2,6.5L569.9,419.3z M67.5,354.8
		c4.9-2,7.6-7.2,6.3-12.3c-0.8-3.5-1.5-7.1-2.3-10.6c-1.7-1.1-3.6-2-5.5-2.7c-3.7-1.2-6.1,0.5-6.4,4.4c-0.2,2.6,0,5.2,0,7.8
		C62.3,345.9,64.9,350.3,67.5,354.8z M252.9,570.9c-1.2,0-2.5,0-3.7-0.2c-1.3-0.3-2.5-1.1-3.7-1.5c-2.8-1-4-0.3-4.6,2.5
		c-1.3,6.2,1.5,10.5,8.3,13.1c8.1,3,11.3,1,11.9-7.6c0-0.1,0-0.2,0-0.2C259.7,573.5,256.5,571.2,252.9,570.9z M300.7,571.6
		c-5.7,0.4-8.8,3.2-8.9,9c0,3.2,1.3,5.5,4.5,5.5c2-0.1,4.1-0.1,6.1,0c5.4,0.8,9.7-2.7,11.5-7.7c-0.7-1.4-1.5-2.8-2.2-4.2
		C308.1,572.9,304.7,571.3,300.7,571.6L300.7,571.6z M310,604.4l7-2.5c1.2-0.3,2-1.6,1.6-2.9c0-0.1-0.1-0.3-0.1-0.4
		c-0.6-1.8-1.5-3.5-2.7-4.9c-4.1-4.2-9.5-5-15.1-4.7c-1.1,0.2-2,0.9-2.6,1.8c-1.6,2.7-1.3,6,0.8,8.3c2.7,3.2,6.8,5,10.9,4.7
		L310,604.4z M277.3,620c0.2,0.1,0.5,0.1,0.7,0.1c2.5,0.3,5,0.4,7.6,0.4c2.9-0.2,4.8-2,6.2-4.5c1-2,0.2-3.6-0.8-5.1
		c-1.2-1.7-2.7-3.3-4-5l-4.5-0.5c-3.6-0.4-7,0-9.8,2.7C271.6,611.5,274.3,618.3,277.3,620z M534.5,435.3c0.3,3,2.4,5.5,5.3,6.3
		c2.5,0.5,4.9-0.9,6.2-3.8c0.4-0.9,0.6-1.8,1-2.6c2.8-6,1.5-12.3-4.9-15.2l-7.4,7.2C534.7,429.9,534.5,432.6,534.5,435.3
		L534.5,435.3z M64.7,221.7c-3.2-1.1-6,0-6.9,2.6c-1.4,4.3-2,8.6,0.3,12.8c1.1,2,2.3,3.9,3.5,5.9l0.9,0.1c0.3-0.2,0.6-0.4,1-0.5
		c4.2-1,5.7-2.9,5.7-7c0-3.1,0.1-6.2,0.1-9.3c-0.1-0.8-0.1-1.5-0.2-2.3C67.7,223.1,66.2,222.3,64.7,221.7L64.7,221.7z M340.8,608.4
		c-1.8,0.2-3.3,1-3.7,3.1c-0.4,2.3-0.1,4.5,1.7,5.8c4.9,3.5,10.4,3.6,15.9,1.7c2.3-0.8,3.2-3,3.1-5.9s-1.5-4.2-4.2-4.7
		c-2.2-0.4-4.4-0.4-5.9-0.5C344.9,608.2,342.8,608.1,340.8,608.4L340.8,608.4z M421.8,588.8c0,2.2-0.9,4.7,1.5,6.1
		c2.2,1.4,5.1,1.2,7.1-0.5c1.9-1.3,3.6-2.8,5.2-4.4c2.3-2.3,3.4-5.5,2.9-8.8c-2.7-3.1-6.2-3.8-9.2-1.5c-2.6,2-4.9,4.5-7.3,6.7
		C421.9,587.3,421.9,588,421.8,588.8L421.8,588.8z M93.7,226.8c0.2,1.5,0.9,2.9,2.1,3.9c0.8,0.5,2.7-0.2,3.8-0.8
		c3.7-2.2,4.8-5.7,5-9.8c0.3-7.5-2.1-9.3-8.6-8.7l-3,5.7C93.3,220.3,93.3,223.6,93.7,226.8L93.7,226.8z M220.9,600.3
		c4.3,0.7,7.1-1.7,6-5.9c-1-3.6-3.6-5.9-7.2-5.9c-4.4,0-8.8,0.1-13.1,0.1l-0.2,2.2C209.5,596,214.9,599.5,220.9,600.3L220.9,600.3z
		 M67.7,423.2c0.8,2.1,2.6,3.7,4,5.5l7.1-4.5c-0.9-3.5-1.9-7-2.8-10.5c-2.5-1.8-5.6-2.4-8.5-1.9C65.7,415.8,66.2,419.6,67.7,423.2z
		 M207.2,583.7c4.1,0.3,7.3-1.2,9.3-4.9l-2.6-4.7c-2.2-0.9-4.4-2-6.7-2.7c-3.2-1-5,0.2-5.5,3.5c-0.2,1.9-0.2,3.9-0.2,5.8l2.9,2.9
		C205.4,583.7,206.3,583.6,207.2,583.7z M505.2,531.4c0.2,2.8,1.6,5.1,3.7,5.1c2.6,0,5.1-1.2,6.7-3.3c1.6-2,1.4-4.2,0.5-6.5
		c-0.5-1.4-0.9-3-1.4-4.4c-0.8-0.1-1.6-0.2-2.4-0.3c-3.9-0.3-7.3,2.6-7.7,6.5C504.9,529.4,505.1,530.4,505.2,531.4L505.2,531.4z
		 M361,570.1c5.5,5.2,8.6,5.8,13.4,1.5c1.4-1.5,2.6-3.1,3.8-4.8c-4-4.5-11-4.8-15.5-0.8c-1,0.9-1.8,2-2.4,3.2
		C360.5,569.5,360.8,569.8,361,570.1z M58.7,399.9c-3-0.4-4.1,1.5-4.3,4.3c-0.1,1.3,0.1,2.6,0,3.8c-0.4,3.3,2.5,5.7,4.9,6.5
		c2.6,0.9,4.2-0.9,5.7-2.6c-0.1-2.5-0.3-5.1-0.7-7.6c-0.4-1.9-1-4.1-3.7-4.4C60,400,59.4,400,58.7,399.9z M499.9,483.7
		c0.2-1.1-0.6-2.1-1.6-2.3c0,0,0,0-0.1,0c-4-1.2-8.2,1-9.4,5c-0.1,0.3-0.2,0.7-0.2,1c-0.8,5-0.5,6.6,4,7.9c0.9,0.2,1.7,0.2,2.6,0.2
		l4.9-7.7C500,486.4,499.9,485,499.9,483.7z M138.5,537.2c2.9,1.1,4.8,0.3,5.5-2.6c0.4-1.7,0.6-3.3,0.8-5l-5.1-2.7
		c-3.9,0.3-7.8,0.9-9.7,5l0.7,2.7C133.3,535.4,135.9,536.2,138.5,537.2z M148.9,157.7c-4.2-0.5-6,3.2-8.7,5.2c0,1.4-0.1,2.9,0,4.3
		c0.3,3.6,3.6,5.3,6.5,3.1c1.2-0.9,2.2-2.1,2.6-3.5c0.4-2.8,0.5-5.7,0.5-8.6C149.6,158,149.2,157.8,148.9,157.7L148.9,157.7z
		 M82.5,463.5c-1.2-2-3.6-2.2-5.6-1.5c-2.2,0.8-2.8,3.1-2.8,5.3c-0.1,3.3,3.3,7.4,6.1,7.4c2.3,0,3.4-2,3.8-6.4
		C83.5,466.7,83.4,464.9,82.5,463.5z M244.7,559.2c4.3,0.2,5.1-0.5,5.7-4.8c-1.9-1.7-3.9-3.3-6-4.7c-2.9-1.7-7.4,0.5-6.7,3.3
		c0.6,2.2,2.4,4.1,3.6,6.1C242.5,559.1,243.6,559.1,244.7,559.2L244.7,559.2z M558.3,226.4c0.2-7.1,0.7-14.2,1.2-21.2
		c0.2-2.7-0.5-4.6-3.4-5.4c-1.2-0.5-2.4-1.2-3.6-1.9c-4.6-2.4-10.2-1.7-14.1,1.6c-3.7,3.4-3,7.5-1.5,11.5c3.1,8.8,7.7,17,13.7,24.2
		c2.4,2.8,4.7,4.5,8.2,2.9C558.6,234.1,558.1,230.2,558.3,226.4L558.3,226.4z M334.9,79.4c4.9,0.8,9.4-0.6,13.5-3.3
		c-2.2-6.6-4.3-13.3-6.7-19.9c-1.9-5.1-6.5-7.2-11.1-9.1c-1.4-0.4-2.8-0.4-4.2,0.1c-4,1.2-5.2,3.8-3.6,7.7c1.7,4.2,4.7,6.7,9.3,7.2
		c1.8,0.2,3,0.8,3.2,2.9l-8.4,6.2C327.5,75,331.2,78.8,334.9,79.4z M463.6,173.7c0.5,7.7,3.5,11.1,11.1,12.8c1.5,0.4,3,0.6,4.5,0.7
		c1,0,2-0.4,2.8-1.1c6.1-7.2,5.5-15.9-1.6-22.9c-3.1-3.1-6.8-4.5-11.1-2.8s-5.8,4.1-5.7,9.4C463.6,171.2,463.5,172.4,463.6,173.7z
		 M168,107c4.2-3.3,5.2-7.8,3.9-12.9c-0.2-0.2-0.4-0.5-0.7-0.7c-7-5-19-1.2-21.9,6.9c-2.3,6.4,1.7,11.4,8.5,10.6
		c1.2,0,2.3,0,3.5,0.2C163.6,109.9,165.9,108.5,168,107z M528.7,138.5c2.4,2,5.1,2.9,8.2,1.9c5.4-7.1,2.8-16.8-1.2-22.6
		c-1-1.1-2.4-1.7-3.9-1.8c-4.6-0.3-8.6,3.3-9.3,7.9c-0.6,4,0.3,8.2,2.5,11.6C526.2,136.5,527.5,137.5,528.7,138.5z M277.8,60.6
		c0.2-2.4-1.2-4.6-3.4-5.6c-6.6-3-14.4-0.1-17.4,6.6c-0.1,0.1-0.1,0.2-0.2,0.4c-0.5,1.5-0.9,3-1.3,4.6c4.2,5.4,8.7,7.1,14.1,4.7
		c2.7-1.2,5.2-3.1,7.7-4.7C277.5,64.5,277.8,62.5,277.8,60.6L277.8,60.6z M196,93.1c-0.4,7,2.5,9.5,9.5,8c5.5-1.2,8.4-4.4,8.5-9.4
		c0.1-4.2-1.9-8.2-5.2-10.8c-0.8,0.1-1.6,0.2-2.4,0.3c-3.6,0.5-7.3,0.5-10.2,3.2C196.1,87.2,196.2,90.2,196,93.1z M193,115.4
		c-0.5,0.8-0.6,2.4-0.1,3c3.7,3.9,7.4,7.8,11.5,11.4c1.6,1.5,4,0.5,5.1-1.1s2.2-4.2,1.6-5.3c-1.2-2.2-1.8-4.7-1.9-7.3
		c-0.3-4.2-2.1-5.9-6.2-5.9S195.3,111.7,193,115.4L193,115.4z M566.2,306.3c0.2,2.9,0.6,5.9,0.9,8.8c0.1,0.9,0.4,1.9,0.7,2.8
		c1.1,2.9,4.6,4.5,8,3.8c2.4-0.5,3.3-1.9,3.2-5.6c-0.1-3.3-0.2-6.6-0.6-9.9c-0.5-4.5-2.8-6.5-7-6.5C567.9,299.6,566,302,566.2,306.3
		L566.2,306.3z M219,64.2c-0.1-2.1-0.2-4.1-0.4-6.2c-0.3-2.8-1.4-3.8-4.1-3c-2.2,0.6-4.3,1.5-6.3,2.6c-3.6,2.1-6,5.2-6.3,9.6
		c-0.5,5.3,2,7.3,7,5.6c1.6-0.5,3.2-0.9,4.8-1.3L219,64.2z M497.4,196.2c2.7,0.8,5.5-0.1,7.2-2.3c0.6-0.9,1-1.8,1.2-2.8
		c0.5-1.8,0.8-3.7,1.1-5.6c0.9-4.9-2.7-8.8-7.7-8.4c-2.9,0.2-4.1,1.5-4.1,4.5s0,6.2,0,9.3C495,194.7,495.4,195.6,497.4,196.2
		L497.4,196.2z M446.6,121.5c-1.2-5.6-5.8-9.9-11.4-10.7c-3.4-0.3-5.7,1.7-5.3,4.7c0.6,4.9,6.8,10.3,11.7,10.3
		C445.5,125.8,447.1,124.4,446.6,121.5z M565.3,238.9c2.1,2,7.1,1.7,9-0.5c0.2-0.3,0.4-0.7,0.3-1.1c-0.2-2.9-0.3-5.9-0.8-8.8
		c-0.7-3.8-2.6-5.3-5.8-4.9c-3.9,0.4-6.4,2.9-6.4,6.4C561.9,233.3,563.2,236.4,565.3,238.9L565.3,238.9z M268.7,88.4
		c2.9,1.5,5.5,0.9,7.3-1.9c1.4-2.4,2.6-4.9,3.7-7.4c-5.5-3.4-9-3.2-13.9,1c-1.3,1.2-2.5,2.5-3.6,3.8C264.4,85.5,266.5,87,268.7,88.4
		z M126,128c2,2.1,4.3,2,6.3-0.1c1.3-1.5,2.4-3.1,3.5-4.8c-0.2-0.8-0.4-1.7-0.4-2.6c0-2-0.5-3.8-2.7-4.6c-2.5-0.9-5.1-0.5-6.5,1.4
		c-1.3,2-2.4,4.1-3.4,6.2C123.7,125.1,124.8,126.6,126,128z M560.2,191.9c1.3,1,5-1.4,6.3-3.6c0-2.4-0.1-4.9-0.5-7.3
		c-0.5-2.8-3.6-4.2-6.8-3.6c-2.1,0.4-2.7,1.5-2.7,4.8c0,1.3-0.2,2.6-0.4,3.9C557.5,188.1,558.5,190.5,560.2,191.9L560.2,191.9z
		 M476,136.3c-2.1-1.4-4.2-2.6-6.5-3.6c-0.8-0.4-2-0.2-3-0.2c-0.1,1-0.1,2,0,3c0.5,1.5,1.1,3,1.9,4.4c3.3,6.2,9.5,7,14.8,1.9
		C480.7,139.8,478.4,137.9,476,136.3z M391.1,96.7c0.8,2.6,3,4.5,5.6,4.9c2.6,0.5,5.2-0.9,6.2-3.3c-1.6-5.2-3.1-6.8-7.3-7.1
		c-0.9,0-1.9,0-2.9,0C391,92.4,390.3,94.6,391.1,96.7L391.1,96.7z M498,106c3.4,0.3,6-1.2,6.8-4c2.1-8.3-3-16.7-11.3-18.8
		c-0.6-0.1-1.1-0.2-1.7-0.3c-3.2-0.6-6.3,1.2-7.5,4.2c-0.5,1.1-0.8,2.2-1.2,3.4c-0.5,2.1-0.1,4.3,1,6.1c0.6,1.3,1.1,2.6,1.6,3.9
		C489.5,102.9,493.2,105.6,498,106L498,106z M382,67.1c-2.6,0.7-4.2,3.5-3.4,6.1c0.1,0.2,0.1,0.4,0.2,0.5
		c2.1,4.9,11.4,10.2,16.7,9.5c2.7-0.3,5.2-4.1,4.4-6.7c-2.1-5.8-7.5-9.8-13.7-10.1C384.7,66.6,383.3,66.8,382,67.1L382,67.1z
		 M354.6,45.6c2.3,0.7,4.8,1.2,7.2,1.5c2.9,0.4,5.7-1.7,6.1-4.6c0-0.1,0-0.3,0-0.4c0.3-4.8-3.1-8.9-7.9-9.6c-2.5-0.2-5.1-0.2-7.6,0
		c-2.8,0.1-3.9,1.6-4,4.3C348.4,41.1,350.5,44.3,354.6,45.6L354.6,45.6z M299.6,44.4c2-0.3,3.7-1.2,4.1-3.4c0.8-3.9-0.8-7.2-4.7-7.8
		c-4-0.6-8-0.8-12.1-0.4c-3.3,0.3-4.5,2.7-4.2,6.6c0,2.7,2.1,4.9,4.8,5c1.9,0.2,3.8,0.3,5.8,0.5C295.3,44.7,297.5,44.7,299.6,44.4
		L299.6,44.4z M433.1,80.6c3.7,0.5,5.6-1,5.9-4.7c0.1-1.2,0-2.4,0.1-3.6c-1.6-1.4-3.1-2.9-4.7-4.3c-2.7-2.2-5.1-2.1-7.8,0.2
		c-0.9,1-1.8,2-2.5,3.1C424.3,76.7,427.2,79.7,433.1,80.6L433.1,80.6z M505.4,125.2c2.2-0.4,4.1-1.9,4.1-4c-0.2-1.8-1.1-3.5-2.5-4.7
		c-1.9-1.2-4.1-2.1-6.3-2.6c-2.2-0.6-4.7,0.8-5.9,3.1s-0.5,4.1,1.1,5.8c1.7,1.8,4.1,2.9,6.6,2.8
		C503.5,125.5,504.4,125.3,505.4,125.2L505.4,125.2z M358.6,63.3c1.3,0.8,2.8,1.5,4.4,1.8c1.1,0.2,2.8,0.1,3.3-0.6
		c0.9-1.1,1.2-2.6,0.9-4c-0.5-1.4-2.1-2.5-3.4-3.4c-1.2-0.6-2.4-1.2-3.7-1.6c-2.8-1.2-4.1-0.4-4.1,2.8
		C356,60.6,356.7,62.2,358.6,63.3L358.6,63.3z M178,476.1c-1.3-2.5-2.5-5.1-3.7-7.6c-2.1-1.2-4.1-2.4-6.2-3.5
		c-4.1-2.2-7.2-1.6-10.2,1.9c-4.8,5.6-5,12.1-0.6,19c3.2,5,7.3,6.8,12.9,5.1c2.5-0.7,4.8-2.1,7.1-3.2C180.2,484,180,480.1,178,476.1
		z M271,550.8c1.9,0.4,3.9,0.7,5.9,0.7c3.3,0.2,6.3-2,7.2-5.2c0.5-2.2,0.9-4.5,1.1-6.8c-3.3-4-7.1-7.2-12.6-6.2
		c-3.3,0.6-6.4,2.5-9.6,3.8C261.2,544.7,263.7,549.1,271,550.8z M145.2,470.5c0.3-3.3,0.2-6.6,0.2-10s-1.3-4.5-4.5-4.4
		c-3,0.1-5,1.4-5.8,4.4c-0.7,2.5-1.1,5-1.2,7.5c-0.1,4.2,2.7,7.3,6.3,7.2C143.3,475.2,144.9,473.9,145.2,470.5z M194.3,532.5
		c1.4,5.4,6.8,8.7,12.2,7.3c0.5-0.1,1-0.3,1.5-0.5c2-0.8,2.6-2.1,1.9-4.2c-1.7-4.9-6.3-8.2-11.5-8.1
		C194.4,526.9,193.2,528.5,194.3,532.5z M161.3,513c1.8,0.6,3.3,1.8,4.3,3.4c1.1,1.4,2.6,2.4,4.4,2.8c3.2,0.5,4.7-2,3.3-4.9
		c-3.5-7.2-8.3-8.9-15.7-5.3C157.6,511.4,159.3,512.3,161.3,513L161.3,513z"/>
</g>
</svg>
